<svg xmlns="http://www.w3.org/2000/svg" xmlns:xlink="http://www.w3.org/1999/xlink" id="ceremoniaa" x="0px" y="0px" viewBox="0 0 250 230" style="enable-background:new 0 0 250 230;" xml:space="preserve"> <g fill="#d4b680"> <path d="M1.5,166.9c1.1,0.7,2.4,0.9,3.7,0.9c0.9,0,1.9-0.1,2.8-0.3c0.6-0.1,1.1-0.2,1.7-0.3c0.4-0.1,0.8-0.2,1.2-0.3 c0.6-0.1,1.2-0.3,1.7-0.4c0.3-0.1,0.5-0.2,0.8-0.3c0.6-0.2,1.3-0.4,1.9-0.6c0.1,0,0.3-0.1,0.4-0.1c0.2,0.1,0.5,0.3,0.7,0.4 c0,0,0.1,0.1,0.1,0.1c0.2,0.2,0.3,0.5,0.4,0.7c0.3,0.8,0.4,1.5,0.6,2.3c0.2,2.1,0.3,4.2,0.3,6.3c0,1.1,0,2.1,0,3.2 c-0.1,2.4-0.2,4.8-0.3,7.2c-0.2,5.7-0.5,11.4-0.9,17.2c-0.2,3.1-0.4,6.2-0.5,9.3c0,1.4-0.1,2.8-0.1,4.3c0,0.8,0,1.6,0,2.4 c0,0.8,0.1,1.6,0.2,2.5c0.1,0.4,0.4,0.7,0.7,0.9c0.1,0,0.1,0,0.2,0.1c0.1,0.1,0.1,0.2,0.2,0.3c0.1,0.1,0.2,0.1,0.3,0.2 c0.2,0.1,0.5,0.2,0.8,0.3c0.1,0,0.3,0.1,0.4,0.1c0.4,0.1,0.8,0.1,1.2,0.2c0.7,0.1,1.3,0.1,2,0.1c0,0-0.1,0-0.1,0 c-0.6,0-1.2,0-1.8,0.1c-0.3,0-0.5,0-0.8,0c-0.4,0-0.7,0.1-1.1,0.1c-0.2,0-0.3,0.1-0.5,0.1c-0.1,0-0.2,0.1-0.3,0.1 c-0.3,0.1-0.5,0.4-0.6,0.7c-0.1,0.3,0.1,0.6,0.3,0.8c0.1,0.1,0.2,0.2,0.3,0.2c0.1,0,0.2,0.1,0.4,0.1c0.1,0,0.2,0.1,0.3,0.1 c0.2,0.1,0.4,0.1,0.6,0.1c0.6,0.1,1.2,0.1,1.8,0.1c1.2,0.1,2.4,0.2,3.6,0.3c2.5,0.2,5.1,0.1,7.7,0.2c1.8,0.1,3.5,0.3,5.3,0.4 c1.8,0.1,3.5,0.2,5.3,0.2c1.5,0.1,2.9,0.1,4.4,0.2c1.5,0.1,2.9,0.2,4.4,0.2c1.5,0,3.1,0,4.6,0c1.4,0,2.9-0.1,4.3-0.1 c2.2,0,4.4-0.1,6.6-0.1c1.2,0,2.4,0,3.7,0c1,0,2,0.1,3.1,0.1c4.6,0.1,9.2,0.2,13.8,0.1c2.1,0,4.2,0,6.3,0c2,0,4,0.1,6,0.1 c0.3,0,0.6,0,0.9,0c2.3,0,4.5-0.1,6.8-0.1c2.2-0.1,4.4-0.1,6.6-0.2c2.2-0.1,4.5-0.1,6.7-0.2c2.3,0,4.6-0.1,6.9-0.2 c2.4-0.1,4.8-0.2,7.2-0.4c2.2-0.1,4.4-0.2,6.5-0.2c2.2,0,4.4,0.1,6.7,0.2c2.3,0,4.6,0,6.9-0.1c2.3-0.1,4.6-0.2,6.9-0.3 c2.2-0.1,4.5-0.1,6.7-0.1c2.2,0.1,4.4,0.1,6.7,0.2c2.3,0.1,4.5,0.1,6.8,0.1c2.3,0,4.6-0.1,6.9-0.2c2.3-0.1,4.6-0.1,6.9-0.1 c4.6,0,9.2,0,13.8-0.3c4.4-0.3,8.9-0.5,13.3-0.6c1.1,0,2.2,0,3.3-0.1c1.6,0,3.2-0.1,4.7-0.9c0.5-0.3,1-0.6,1.3-1 c0.1-0.2,0.3-0.3,0.4-0.5c0.1-0.1,0.1-0.2,0.2-0.3c0.2,0,0.4,0,0.5-0.1c0.3-0.2,0.6-0.5,0.7-0.9c0.1-0.8,0.2-1.6,0.2-2.5 c0-0.8,0-1.6,0-2.4c0-1.4,0-2.8-0.1-4.3c-0.1-3.1-0.3-6.2-0.5-9.3c-0.4-5.7-0.7-11.4-0.9-17.2c-0.1-2.4-0.2-4.8-0.2-7.2 c0-1.1,0-2.1,0-3.2c0-2.1,0-4.2,0.3-6.3c0.1-0.8,0.3-1.6,0.6-2.3c0.1-0.3,0.2-0.5,0.4-0.7c0,0,0.1-0.1,0.1-0.1 c0.2-0.2,0.5-0.3,0.7-0.4c0.1,0,0.3,0.1,0.4,0.1c0.6,0.2,1.3,0.4,1.9,0.6c0.3,0.1,0.5,0.2,0.8,0.3c0.6,0.1,1.2,0.3,1.7,0.4 c0.4,0.1,0.8,0.2,1.2,0.3c0.6,0.1,1.1,0.2,1.7,0.3c0.9,0.1,1.8,0.3,2.8,0.3c1.3,0,2.6-0.2,3.7-0.9c0.4-0.2,0.6-0.7,0.5-1.2 c-0.1-0.4-0.6-0.9-1-0.8c-0.9,0.1-1.9,0-2.8-0.1c-1.3-0.2-2.5-0.5-3.7-0.7c-0.8-0.2-1.6-0.4-2.4-0.7c-0.3-0.1-0.6-0.2-0.9-0.3 c-0.3-0.1-0.7-0.2-1-0.4c-0.8-0.3-1.6-0.6-2.4-0.9c-0.6-0.3-1.3-0.6-1.9-0.8c-0.6-0.3-1.3-0.5-1.9-0.8c-1.4-0.7-2.9-1.4-4.3-2.1 c-1.5-0.7-2.9-1.5-4.4-2.3c-1.3-0.7-2.6-1.3-3.9-2c-1.1-0.6-2.3-1.2-3.4-1.8c-1.3-0.7-2.6-1.4-3.9-2.1c-1.6-0.9-3.2-1.8-4.8-2.7 c-1.2-0.7-2.4-1.4-3.6-2.1c-1.1-0.6-2.1-1.3-3.2-2c-1.4-0.9-2.8-1.8-4.2-2.8c-2.5-1.6-4.9-3.2-7.3-4.9c-2.1-1.4-4.3-2.9-6.4-4.4 c-1.9-1.3-3.8-2.6-5.7-4c0.1,0.1,0.2,0.1,0.3,0.2c-1.3-1-2.6-2-3.9-3c-1-0.8-2-1.5-3-2.3c-0.5-0.4-1-0.8-1.4-1.2 c-0.4-0.4-0.9-0.7-1.3-1.1c-0.9-0.8-1.9-1.6-2.8-2.5c-1.5-1.4-3-2.7-4.2-4.4c0,0,0.1,0.1,0.1,0.1c0,0-0.1-0.1-0.1-0.1c0,0,0,0,0,0 c0,0,0,0,0,0c0,0,0,0,0,0c0,0,0,0,0,0c0,0,0,0,0,0c0,0,0,0,0,0c0,0,0,0,0,0c-0.3-0.4-0.6-0.8-0.9-1.3c-0.1-0.2-0.3-0.3-0.5-0.4 c0-2.1,0-4.2,0-6.3c0-3.3,0-6.7,0-10c0-3,0.1-6,0.1-9c0-2.1,0.1-4.3,0.2-6.4c0-1.2,0.1-2.3,0.2-3.5c0.2,0.2,0.4,0.4,0.7,0.7 c0,0.1,0,0.2,0,0.3c0,0.2,0,0.3,0,0.5c0,0.7,0.1,1.4,0.1,2c0,0.4,0,0.7,0,1.1c0,0.7,0,1.4,0.1,2.1c0.1,2,0.1,4,0.1,6 c0,1.2,0,2.3-0.1,3.5c0,0.4,0,0.8,0,1.2c0,0.5,0,1.1-0.1,1.6c-0.1,1.2-0.1,2.3-0.2,3.5c-0.1,1-0.1,2-0.1,3.1c0,1.1,0,2.1,0,3.2 c0,0.5,0,1,0,1.5c0,0.6,0,1.1,0,1.7c0,1.2,0.1,2.4,0.3,3.6c0,0.1,0.1,0.2,0.2,0.3c0.1,0.1,0.2,0.1,0.3,0.1c0,0,0,0,0,0 c0.3,0,0.5-0.2,0.4-0.5c0-0.2,0-0.4,0-0.6c0,0,0.1,0.1,0.1,0.1c0.1,0.1,0.2,0.1,0.3,0.1c0,0,0.1,0,0.1,0.1c0.7,0.5,1.3,1.1,2,1.7 c0.7,0.6,1.4,1.2,2.1,1.9c0.7,0.6,1.5,1.3,2.3,1.9c0.3,0.2,0.6,0.5,0.9,0.7c0.5,0.4,1,0.7,1.5,1.1c0.8,0.6,1.6,1.2,2.4,1.8 c0.7,0.5,1.3,1,2,1.5c1.6,1.2,3.3,2.4,4.9,3.6c3.1,2.2,6.1,4.5,9.2,6.7c3,2.2,6,4.3,9,6.4c0.9,0.6,1.8,1.2,2.7,1.8 c0.6,0.4,1.3,0.8,1.9,1.3c1.5,1,3,2,4.6,3c1.6,1,3.1,2.1,4.7,3.1c1.1,0.7,2.1,1.4,3.2,2.1c0.6,0.4,1.3,0.8,1.9,1.2 c1.8,1.1,3.6,2.2,5.3,3.3c0.9,0.6,1.8,1.1,2.7,1.6c1.2,0.7,2.4,1.3,3.6,1.9c0.6,0.3,1.2,0.5,1.8,0.8c0.5,0.2,1,0.5,1.6,0.7 c0.4,0.2,0.8,0.3,1.2,0.5c0.9,0.3,1.8,0.7,2.7,1c0.2,0.1,0.5,0.2,0.7,0.2c0.6,0.2,1.1,0.4,1.7,0.6c1.3,0.4,2.6,0.9,4,1.1 c0.9,0.2,1.8,0.3,2.8,0.3c0.2,0,0.5,0,0.7,0c0.6,0,1.1-0.2,1.6-0.3c0.2-0.1,0.4-0.1,0.6-0.2c0.2-0.1,0.4-0.4,0.5-0.6 c0.2-0.6-0.4-1.1-0.9-0.9c-0.2,0.1-0.4,0.2-0.5,0.4c-0.3,0.1-0.7,0.2-1,0.3c-0.7,0.1-1.4,0.1-2.1,0c-1.5-0.2-3-0.6-4.5-1.1 c-1-0.3-1.9-0.7-2.9-1c-0.6-0.2-1.2-0.4-1.7-0.7c-0.8-0.3-1.5-0.6-2.3-0.9c-1.2-0.5-2.4-1.1-3.6-1.7c-1.2-0.6-2.4-1.3-3.6-2 c-1.1-0.7-2.3-1.3-3.4-2c-1.6-1-3.2-2-4.7-3c-3.5-2.2-6.9-4.5-10.3-6.8c-1.7-1.1-3.3-2.2-5-3.3c-0.5-0.3-1-0.7-1.5-1 c-1.1-0.7-2.1-1.5-3.2-2.2c-1.6-1.1-3.1-2.2-4.7-3.3c-1.5-1.1-3.1-2.2-4.6-3.3c-3.1-2.2-6.1-4.4-9.2-6.7c-1.5-1.1-3-2.2-4.5-3.3 c-0.7-0.5-1.5-1.1-2.3-1.6c-0.8-0.5-1.5-1.1-2.3-1.7c-0.1-0.1-0.2-0.2-0.4-0.3c-0.6-0.5-1.2-1-1.8-1.5c-0.6-0.5-1.1-0.9-1.7-1.4 c-0.6-0.6-1.3-1.1-1.9-1.6c-0.3-0.2-0.6-0.5-0.9-0.7c-0.1-0.1-0.3-0.2-0.4-0.3c-0.1-0.1-0.2-0.2-0.3-0.2c-0.1,0-0.1-0.1-0.2-0.1 c-0.1,0-0.1-0.1-0.2-0.1c-0.3-0.1-0.5,0-0.7,0.2c0-0.5,0-1.1-0.1-1.6c0-1,0-2.1,0-3.1c0-1,0-2,0-3.1c0-0.5,0-1.1,0-1.6 c0-0.6,0-1.1,0-1.7c0-1.1,0.1-2.2,0.1-3.4c0-0.5,0-0.9,0-1.4c0-0.5,0-0.9,0-1.4c0-1.1,0-2.2,0-3.3c0-1.2,0-2.3,0-3.5 c0-1,0-1.9-0.1-2.9c0-0.6,0-1.2-0.1-1.8c0-0.5,0-0.9,0-1.4c0-0.7-0.1-1.4-0.1-2.1c0.5,0.5,1,1.1,1.6,1.6c0.8,0.8,1.6,1.6,2.4,2.4 c0.7,0.7,1.4,1.3,2.1,2c1.2,1.2,2.5,2.4,3.8,3.5c1.1,0.9,2.2,1.8,3.4,2.5c1.1,0.7,2.3,1.2,3.6,1.5c0.3,0.1,0.6,0.1,0.9,0.2 c0.2,0,0.3,0.1,0.5,0.1c0.1,0,0.2,0,0.3-0.1c0.1,0,0.1,0,0.2-0.1c0.1-0.1,0.2-0.2,0.3-0.3c0.1-0.1,0.1-0.2,0.1-0.3 c0-0.2,0-0.4-0.1-0.6c-0.1-0.2-0.2-0.3-0.3-0.4c-0.3-0.3-0.6-0.6-0.9-0.9c-0.7-0.6-1.3-1.3-2-1.9c-1.4-1.3-2.8-2.6-4.2-4 c-0.6-0.6-1.2-1.1-1.8-1.7c-0.8-0.7-1.5-1.4-2.2-2.2c-0.8-0.8-1.5-1.5-2.2-2.3c-0.5-0.5-1-1-1.4-1.5c-0.9-0.9-1.7-1.8-2.6-2.8 c-0.5-0.5-0.9-1-1.3-1.5c-1.3-1.5-2.5-2.9-3.8-4.4c-1.3-1.5-2.5-3-3.8-4.5c-1.2-1.4-2.5-2.9-3.7-4.3c-0.6-0.7-1.2-1.3-1.7-2 c-0.6-0.8-1.3-1.5-1.9-2.3c-0.8-1-1.6-1.9-2.3-2.9c-1-1.2-1.9-2.5-2.9-3.7c-1.1-1.5-2.2-3-3.3-4.5c-0.6-0.8-1.1-1.6-1.7-2.4 c-0.5-0.7-0.9-1.3-1.4-2c-1-1.3-1.9-2.6-2.9-4c-0.6-0.9-1.3-1.7-1.9-2.6c-0.4-0.6-0.8-1.1-1.2-1.7c-0.4-0.6-0.7-1.2-1-1.8 c0,0,0.1-0.1,0.1-0.1c0.2-0.5,0.3-1.1,0.3-1.6c0-0.5,0.1-1,0.1-1.5c0-0.8,0-1.7,0-2.5c0-1.8-0.1-3.6,0-5.4c0-0.6,0-1.1,0-1.7 c0.4,0,0.7,0.1,1.1,0.1c1.2,0.1,2.3,0.1,3.5,0.2c0.5,0,1.1,0.1,1.6,0.1c0.3,0,0.6,0,0.9,0c0.1,0,0.1,0,0.2,0c0.2,0,0.5,0,0.7-0.1 c0.3-0.1,0.5-0.2,0.7-0.4c0.2-0.2,0.2-0.5,0.2-0.8c-0.1-0.5-0.4-0.8-0.8-0.9c0,0,0,0,0,0c-0.6-0.2-1.3-0.2-2-0.3 c-0.5,0-1-0.1-1.5-0.1c-1.5-0.1-3-0.2-4.5-0.3c0-0.9,0-1.7,0-2.6c0-2.3-0.1-4.6-0.3-6.9c0-0.4-0.5-0.8-0.9-0.7 c-0.5,0-0.7,0.4-0.7,0.9c0,0.4,0,0.9,0,1.3c0,0,0,0,0,0.1c0,0.4,0,0.9,0,1.3c0,0.9-0.1,1.8-0.1,2.7c0,0.4,0,0.8-0.1,1.2 c0,0.9-0.1,1.8-0.2,2.7c-0.5,0-1-0.1-1.5-0.1c-0.6,0-1.1,0-1.7,0c-0.5,0-0.9,0-1.4,0c-0.4,0-0.9-0.1-1.3-0.1 c-0.5,0-0.9,0.6-0.9,1.1c0,0.4,0.4,0.8,0.8,0.8c0.1,0,0.2,0.1,0.3,0.1c0.2,0,0.3,0,0.5,0c0.2,0,0.5,0.1,0.7,0.1 c0.3,0,0.7,0.1,1,0.1c1.1,0.1,2.3,0.3,3.4,0.4c-0.1,1.9-0.2,3.8-0.3,5.7c0,1-0.1,1.9-0.1,2.9c-0.1,1-0.1,2-0.1,2.9c0,0,0,0.1,0,0.1 c0,0-0.1,0.1-0.1,0.1c0,0,0,0,0,0c-0.5,1-1,2-1.7,2.9c-0.4,0.6-0.8,1.1-1.2,1.7c-0.6,0.9-1.3,1.7-1.9,2.6c-1,1.3-1.9,2.6-2.9,4 c-0.5,0.7-1,1.3-1.4,2c-0.6,0.8-1.1,1.6-1.7,2.4c-1.1,1.5-2.2,3-3.3,4.5c-1,1.2-1.9,2.5-2.9,3.7c-0.8,1-1.5,1.9-2.3,2.9 c-0.6,0.8-1.3,1.5-1.9,2.3c-0.6,0.7-1.1,1.3-1.7,2c-1.2,1.4-2.5,2.9-3.7,4.3c-1.3,1.5-2.5,3-3.8,4.5c-1.3,1.5-2.5,3-3.8,4.4 c-0.4,0.5-0.9,1-1.3,1.5c-0.9,0.9-1.7,1.8-2.6,2.8c-0.5,0.5-1,1-1.4,1.5c-0.7,0.8-1.5,1.5-2.2,2.3c-0.7,0.7-1.5,1.4-2.2,2.2 c-0.6,0.6-1.2,1.1-1.8,1.7c-1.4,1.3-2.8,2.7-4.2,4c-0.7,0.6-1.4,1.2-2,1.9c-0.3,0.3-0.6,0.6-0.9,0.9c-0.1,0.1-0.3,0.3-0.3,0.4 c-0.1,0.2-0.1,0.4-0.1,0.6c0,0.1,0.1,0.2,0.1,0.3c0.1,0.1,0.2,0.2,0.3,0.3c0.1,0,0.1,0,0.2,0.1c0.1,0,0.2,0.1,0.3,0.1 c0.2,0,0.3,0,0.5-0.1c0.3-0.1,0.6-0.1,0.9-0.2c1.3-0.3,2.5-0.9,3.6-1.5c1.2-0.7,2.3-1.6,3.4-2.5c1.3-1.1,2.6-2.3,3.8-3.5 c0.7-0.7,1.4-1.3,2.1-2c0.8-0.8,1.6-1.6,2.4-2.4c0.5-0.5,1-1.1,1.6-1.6c0,0.7-0.1,1.4-0.1,2.1c0,0.5,0,0.9,0,1.4 c0,0.6,0,1.2-0.1,1.8c0,1-0.1,1.9-0.1,2.9c0,1.2,0,2.3,0,3.5c0,1.1,0,2.2,0,3.3c0,0.5,0,0.9,0,1.4c0,0.5,0,0.9,0,1.4 c0,1.1,0.1,2.2,0.1,3.4c0,0.6,0,1.1,0,1.7c0,0.5,0,1.1,0,1.6c0,1,0,2,0,3.1c0,1,0.1,2.1,0,3.1c0,0.5,0,1.1-0.1,1.6 c-0.2-0.2-0.4-0.3-0.7-0.2c-0.1,0-0.1,0-0.2,0.1c-0.1,0-0.1,0.1-0.2,0.1c-0.1,0.1-0.2,0.1-0.3,0.2c-0.1,0.1-0.3,0.2-0.4,0.3 c-0.3,0.2-0.6,0.5-0.9,0.7c-0.6,0.5-1.3,1.1-1.9,1.6c-0.6,0.5-1.1,1-1.7,1.4c-0.6,0.5-1.2,1-1.8,1.5c-0.1,0.1-0.2,0.2-0.4,0.3 c-0.7,0.6-1.5,1.1-2.3,1.7c-0.8,0.5-1.5,1.1-2.3,1.6c-1.5,1.1-3,2.2-4.5,3.3c-3.1,2.2-6.1,4.4-9.2,6.7c-1.5,1.1-3,2.2-4.6,3.3 c-1.5,1.1-3.1,2.2-4.7,3.3c-1.1,0.7-2.1,1.5-3.2,2.2c-0.5,0.4-1,0.7-1.5,1c-1.7,1.1-3.3,2.2-5,3.3c-3.4,2.3-6.9,4.5-10.3,6.8 c-1.6,1-3.2,2-4.7,3c-1.1,0.7-2.2,1.4-3.4,2c-1.2,0.7-2.4,1.3-3.6,2c-1.2,0.6-2.4,1.1-3.6,1.7c-0.8,0.3-1.5,0.6-2.3,0.9 c-0.6,0.2-1.2,0.5-1.7,0.7c-1,0.3-1.9,0.7-2.9,1c-1.5,0.5-3,0.9-4.5,1.1c-0.7,0.1-1.4,0.1-2.1,0c-0.4-0.1-0.7-0.1-1-0.3 c-0.1-0.2-0.3-0.4-0.5-0.4c-0.5-0.1-1.1,0.4-0.9,0.9c0.1,0.3,0.2,0.5,0.5,0.6c0.2,0.1,0.4,0.2,0.6,0.2c0.5,0.2,1.1,0.3,1.6,0.3 c0.2,0,0.5,0,0.7,0c0.9,0,1.9-0.1,2.8-0.3c1.4-0.3,2.7-0.7,4-1.1c0.6-0.2,1.1-0.4,1.7-0.6c0.2-0.1,0.5-0.2,0.7-0.2 c0.9-0.3,1.8-0.7,2.7-1c0.4-0.2,0.8-0.3,1.2-0.5c0.5-0.2,1-0.4,1.6-0.7c0.6-0.3,1.2-0.5,1.8-0.8c1.2-0.6,2.4-1.2,3.6-1.9 c0.9-0.5,1.8-1,2.7-1.6c1.8-1.1,3.6-2.2,5.3-3.3c0.6-0.4,1.3-0.8,1.9-1.2c1.1-0.7,2.1-1.4,3.2-2.1c1.6-1,3.1-2.1,4.7-3.1 c1.5-1,3-2,4.6-3c0.6-0.4,1.3-0.8,1.9-1.3c0.9-0.6,1.8-1.2,2.7-1.8c3-2.1,6.1-4.2,9-6.4c3.1-2.2,6.1-4.5,9.2-6.7 c1.6-1.2,3.3-2.4,4.9-3.6c0.7-0.5,1.3-1,2-1.5c0.8-0.6,1.6-1.2,2.4-1.8c0.5-0.4,1-0.7,1.5-1.1c0.3-0.2,0.6-0.5,0.9-0.7 c0.8-0.6,1.5-1.3,2.3-1.9c0.7-0.6,1.4-1.2,2.1-1.9c0.7-0.6,1.3-1.2,2-1.7c0,0,0.1,0,0.1-0.1c0.1,0,0.2,0,0.3-0.1 c0,0,0.1-0.1,0.1-0.1c0,0.2,0,0.4,0,0.6c0,0.3,0.2,0.5,0.4,0.5c0,0,0,0,0,0c0.1,0,0.2,0,0.3-0.1c0.1-0.1,0.1-0.2,0.2-0.3 c0.2-1.2,0.3-2.4,0.3-3.6c0-0.6,0-1.1,0-1.7c0-0.5,0-1,0-1.5c0-1.1,0-2.1,0-3.2c0-1,0-2-0.1-3.1c-0.1-1.2-0.1-2.3-0.2-3.5 c0-0.5,0-1.1-0.1-1.6c0-0.4,0-0.8,0-1.2c0-1.2,0-2.3-0.1-3.5c0-2,0-4,0.1-6c0-0.7,0-1.4,0.1-2.1c0-0.4,0-0.7,0-1.1 c0-0.7,0.1-1.4,0.1-2c0-0.2,0-0.3,0-0.5c0-0.1,0-0.2,0-0.3c0.2-0.2,0.4-0.4,0.7-0.7c0.1,1.2,0.2,2.3,0.2,3.5 c0.1,2.1,0.2,4.3,0.2,6.4c0,3,0.1,6,0.1,9c0,3.3,0,6.7,0,10c0,2.1,0,4.2,0,6.3c-0.2,0.1-0.4,0.2-0.5,0.4c-0.3,0.4-0.6,0.9-0.9,1.3 c0,0,0,0,0,0c0,0,0,0,0,0.1c0,0,0,0,0,0c0,0,0,0,0,0c0,0,0,0,0,0c0,0-0.1,0.1-0.1,0.1c0,0,0.1-0.1,0.1-0.1c-1.3,1.6-2.8,3-4.2,4.4 c-0.9,0.8-1.8,1.6-2.8,2.5c-0.4,0.4-0.9,0.7-1.3,1.1c-0.5,0.4-1,0.8-1.4,1.2c-1,0.8-2,1.5-3,2.3c-1.3,1-2.6,2-3.9,3 c0.1-0.1,0.2-0.1,0.3-0.2c-1.9,1.3-3.8,2.7-5.7,4c-2.1,1.5-4.3,2.9-6.4,4.4c-2.4,1.6-4.9,3.3-7.3,4.9c-1.4,0.9-2.8,1.8-4.2,2.8 c-1.1,0.7-2.1,1.3-3.2,2c-1.2,0.7-2.4,1.4-3.6,2.1c-1.6,0.9-3.2,1.8-4.8,2.7c-1.3,0.7-2.6,1.4-3.9,2.1c-1.1,0.6-2.2,1.2-3.4,1.8 c-1.3,0.7-2.6,1.3-3.9,2c-1.5,0.8-2.9,1.5-4.4,2.3c-1.4,0.7-2.9,1.4-4.3,2.1c-0.6,0.3-1.3,0.6-1.9,0.8c-0.6,0.3-1.3,0.5-1.9,0.8 c-0.8,0.3-1.6,0.6-2.4,0.9c-0.3,0.1-0.7,0.2-1,0.4c-0.3,0.1-0.6,0.2-0.9,0.3c-0.8,0.2-1.6,0.5-2.4,0.7c-1.2,0.3-2.5,0.6-3.7,0.7 c-0.9,0.1-1.8,0.2-2.8,0.1c-0.5,0-0.9,0.4-1,0.8C0.9,166.2,1.1,166.7,1.5,166.9z M161.1,111.1C161.1,111.1,161.1,111.1,161.1,111.1 C161.1,111.1,161.1,111.1,161.1,111.1C161.1,111.1,161.1,111.1,161.1,111.1z M89.1,111.1C89.1,111.1,89.1,111.1,89.1,111.1 C89.1,111.1,89.2,111.1,89.1,111.1C89.2,111.1,89.2,111.1,89.1,111.1z M230.7,222.2c-0.3,0.2-0.6,0.4-0.9,0.6 c-0.2,0.1-0.3,0.1-0.5,0.2c-0.2,0.1-0.4,0.1-0.6,0.2c-1.5,0.2-3,0.1-4.4,0.1c-1.4,0-2.8,0-4.1,0c-2.8,0.1-5.6,0.2-8.5,0.3 c-2.3,0.1-4.6,0.2-6.9,0.3c-2.3,0-4.6,0-6.9,0c-2.3,0-4.6,0-6.9,0c-2.2,0-4.4,0.1-6.6,0.2c-2.3,0.1-4.6,0.1-6.9,0 c-2.3,0-4.7-0.1-7-0.2c-1.1,0-2.2-0.1-3.3-0.1c-1.1,0-2.3,0-3.4,0c-2.2,0-4.4,0.2-6.5,0.3c-2.3,0.1-4.6,0.2-7,0.2 c-2.3,0-4.5,0-6.8-0.1c-2.2-0.1-4.4,0-6.5,0.1c-2.3,0.1-4.6,0.2-6.8,0.3c-2.3,0.1-4.6,0.2-6.9,0.3c-2.3,0.1-4.6,0.1-6.8,0.1 c-2.2,0.1-4.4,0.2-6.6,0.3c-2.4,0.1-4.7,0.1-7.1,0.2c-2.2,0.1-4.4,0-6.6,0c-2.3,0-4.6-0.1-6.8,0c-2.1,0-4.2,0.1-6.3,0.1 c-2.3,0-4.7,0-7-0.1c-1.1,0-2.2,0-3.3-0.1c-1.1,0-2.3-0.1-3.4-0.1c-2.2,0-4.5,0-6.7,0.1c-2.2,0.1-4.4,0.1-6.7,0.2 c-1.1,0-2.3,0.1-3.4,0.1c-1,0-1.9,0-2.9-0.1c-0.1,0-0.1,0-0.2,0c0,0,0,0,0-0.1c0.1-0.3-0.2-0.7-0.6-0.8c-1.2-0.1-2.5-0.3-3.7-0.4 c-2.1-0.2-4.2-0.5-6.4-0.6c-0.8-0.1-1.5-0.1-2.3-0.1c0.5,0,0.9,0,1.4,0c1.1,0,2.2,0,3.2-0.1c2.3-0.1,4.7-0.2,7-0.4 c2.3-0.1,4.7-0.2,7-0.3c2.3,0,4.7-0.1,7-0.1c4.1,0,8.2-0.1,12.4-0.1c0.6,0,1.1,0,1.7,0c2.4,0,4.9,0,7.3,0c1.1,0,2.3,0,3.4-0.1 c0.6,0,1.1,0,1.7-0.1c0.5,0,0.9,0,1.4-0.1c2.4-0.2,4.8-0.3,7.2-0.5c2.3-0.2,4.7-0.3,7-0.4c1,0,2.1-0.1,3.1-0.1c0.6,0,1.2,0,1.8-0.1 c0.7,0,1.4-0.1,2.1-0.1c0.5,0,1.1-0.1,1.6-0.2c0.4,0,0.9-0.1,1.3-0.1c1.3-0.2,2.6-0.3,3.9-0.5c1.1-0.2,2.3-0.3,3.4-0.4 c1-0.1,2-0.3,3.1-0.3c1.1-0.1,2.2-0.2,3.4-0.2c1.1,0,2.1,0,3.2,0.1c1.8,0.1,3.7,0.2,5.5,0.2c1.8,0,3.7-0.1,5.5-0.2 c1.8-0.1,3.6-0.3,5.3-0.4c0.9,0,1.9-0.1,2.8-0.1c0.8,0,1.7,0,2.5,0c2,0.1,3.9,0.3,5.9,0.4c2.1,0.1,4.2,0.2,6.3,0.1 c2.1-0.1,4.2-0.2,6.3-0.2c2-0.1,4-0.1,6.1-0.1c2,0.1,4.1,0.3,6.1,0.5c2.1,0.1,4.2,0.1,6.2,0c2.2-0.1,4.4-0.2,6.7-0.4 c1.9-0.1,3.8-0.2,5.7-0.2c0.6,0,1.2,0.1,1.9,0.1c0.6,0.1,1.2,0.1,1.8,0.2c1.4,0.1,2.8,0.2,4.2,0.3c1,0,1.9,0,2.9,0 c1.6,0,3.2,0,4.9,0c0,0,0,0,0.1,0c0.1,0,0.2,0,0.2,0c-0.1,0-0.1,0-0.2,0c0.7,0,1.5,0.1,2.2,0.2c0.9,0.1,1.8,0.1,2.7,0.1 c0.8,0,1.6,0,2.3-0.1c0.6,0,1.1-0.1,1.7-0.1c0.4,0,0.9,0.1,1.3,0.1c0.4,0,0.7,0,1.1,0c0.4,0,0.8,0.1,1.2,0.2 c0.4,0.1,0.8,0.2,1.2,0.3c0,0.2,0,0.5,0.1,0.7c0,0,0.1,0.1,0.1,0.1c0,0,0,0,0,0C231.1,221.7,230.9,221.9,230.7,222.2z M200.6,147.8 c-0.1,0-0.2,0-0.3,0c-0.5,0-0.9,0-1.4,0c-0.8,0-1.6,0.1-2.4,0.1c-0.8,0-1.5,0-2.3,0c-0.6,0-1.3,0-1.9,0c-0.7,0-1.5,0-2.2-0.1 c-0.9,0-1.9-0.1-2.8-0.1c-1.4-0.1-2.8-0.1-4.2-0.1c-0.7,0-1.4,0-2.2,0c-0.2,0-0.4,0-0.6,0c-0.5,0-1.1,0-1.6,0c-0.8,0-1.5,0-2.3-0.1 c-0.8,0-1.5-0.1-2.3-0.1c-1.6-0.1-3.1-0.2-4.7-0.3c-1.5-0.1-3-0.1-4.5-0.1c-0.8,0-1.6,0-2.5-0.1c-0.5-0.1-1-0.2-1.6-0.2 c-0.5,0-1-0.1-1.5-0.1c-0.3,0-0.5-0.1-0.8-0.1c0-0.5,0-1-0.1-1.6c0.4,0,0.9,0,1.3,0c0.5,0,1,0,1.6,0c0.6,0,1.2,0,1.7,0 c0.3,0,0.5,0,0.8,0c0.3,0,0.6,0,0.8,0c0.6,0,1.1,0.1,1.7,0.1c0.5,0,1.1,0,1.6,0c0.5,0,0.9,0,1.4,0c0.6,0,1.2,0,1.8,0 c1.1,0,2.2,0.1,3.3,0.1c0.6,0,1.1,0.1,1.7,0.1c0.7,0,1.3,0,2,0.1c0.5,0,1,0,1.6,0c0.5,0,0.9,0,1.4,0c0.7,0,1.4,0,2.1,0 c0.5,0,1.1,0,1.6,0c0.4,0,0.9,0,1.3,0.1c0.7,0,1.4,0.1,2.1,0.1c0.5,0,1.1,0.1,1.6,0.1c0.5,0,0.9,0.1,1.4,0.1 c0.7,0.1,1.4,0.1,2.1,0.2c0.6,0,1.1,0.1,1.7,0.1c0.5,0,1,0,1.5,0.1c0.5,0,1,0,1.5,0.1c0.3,0.2,0.6,0.4,0.8,0.6 C199.7,147.2,200.2,147.5,200.6,147.8z M160,115.9c0.7,0.7,1.4,1.4,2.1,2.1c1,1.1,2.1,2.1,3.2,3.1c0.5,0.5,1.1,1,1.7,1.5 c0.4,0.4,0.9,0.8,1.3,1.2c1.1,1,2.2,2,3.4,2.9c1.1,0.9,2.2,1.9,3.4,2.8c0.8,0.6,1.6,1.3,2.5,1.9c0.5,0.4,1,0.8,1.6,1.2 c2.5,1.9,5.1,3.7,7.6,5.6c2.4,1.7,4.8,3.4,7.2,5.1c0.9,0.6,1.7,1.2,2.6,1.8c-0.3,0-0.5,0-0.8,0c-0.7,0-1.3-0.1-2-0.1 c-0.6,0-1.1-0.1-1.7-0.1c-1.1-0.1-2.2-0.2-3.3-0.3c-0.6,0-1.1-0.1-1.7-0.1c-0.4,0-0.9-0.1-1.3-0.1c-0.7,0-1.4,0-2-0.1 c-0.6,0-1.1,0-1.7,0c-1.1,0-2.2,0-3.3,0c-0.6,0-1.2,0-1.8-0.1c-0.5,0-1,0-1.5-0.1c-1.1,0-2.2-0.1-3.3-0.1c-0.6,0-1.2,0-1.8,0 c-0.5,0-1,0-1.4,0c-0.6,0-1.2,0-1.9,0c-0.5,0-1.1,0-1.6-0.1c-0.5,0-1.1,0-1.6,0c-0.5,0-1,0.1-1.5,0.1c-1.1,0-2.2-0.1-3.3-0.1 c0,0,0,0-0.1,0c0-0.8-0.1-1.6-0.1-2.4c-0.2-6.1-0.3-12.2-0.4-18.3c0-3.2,0-6.4-0.1-9.6C158.8,114.5,159.4,115.3,160,115.9z M128,32.1c0.7,0.9,1.3,1.8,2,2.7c1,1.4,2,2.7,2.9,4.1c1.1,1.5,2.1,3.1,3.2,4.6c1.1,1.5,2.2,3.1,3.3,4.6c0.8,1,1.6,2.1,2.3,3.1 c0.4,0.5,0.8,1,1.2,1.5c1.2,1.5,2.4,3,3.6,4.4c2.4,2.9,4.8,5.9,7.3,8.8c1.2,1.5,2.4,3,3.7,4.4c0.8,0.9,1.6,1.9,2.4,2.8 c0.5,0.6,1,1.1,1.5,1.6c0.7,0.7,1.3,1.5,2,2.2c0.2,0.3,0.5,0.5,0.7,0.8c0.5,0.5,1,1,1.4,1.5c1.2,1.3,2.5,2.5,3.8,3.8 c0.8,0.7,1.5,1.4,2.3,2.2c0.6,0.6,1.3,1.2,2,1.8c0.6,0.6,1.3,1.1,2,1.7c0.2,0.1,0.3,0.3,0.5,0.4c0,0,0,0,0,0 c-1.2-0.5-2.3-1.2-3.4-2c-1.6-1.3-3.1-2.7-4.6-4.2c-0.8-0.8-1.7-1.7-2.5-2.5c-0.6-0.6-1.2-1.2-1.8-1.9c-0.5-0.6-1.1-1.1-1.6-1.7 c-1.3-1.4-2.6-2.7-3.8-4.2c-0.8-0.9-1.6-1.9-2.4-2.8c-0.5-0.6-1.1-1.3-1.6-1.9c-1.2-1.5-2.4-2.9-3.6-4.4c-1.1-1.4-2.2-2.9-3.4-4.3 c-1.2-1.4-2.4-2.9-3.5-4.3c-0.6-0.8-1.2-1.5-1.9-2.3c-0.6-0.7-1.1-1.3-1.7-2c-0.6-0.7-1.1-1.3-1.7-2c-0.5-0.7-1.1-1.4-1.6-2 c-0.5-0.7-1.1-1.4-1.6-2.1c-0.3-0.4-0.6-0.8-0.8-1.2c-0.2-0.3-0.5-0.7-0.7-1c-0.5-0.8-1-1.5-1.5-2.3c-0.5-0.8-1-1.7-1.5-2.5 c-0.4-0.7-0.8-1.4-1.3-2.2c-0.4-0.7-0.8-1.4-1.2-2.1c-0.1-0.3-0.3-0.6-0.4-0.9c-0.2-0.4-0.4-0.8-0.5-1.1c-0.1-0.1-0.1-0.2-0.2-0.4 C127.5,31.4,127.8,31.7,128,32.1z M88.1,77c-0.5,0.6-1.1,1.1-1.6,1.7c-0.6,0.6-1.2,1.2-1.8,1.9c-0.8,0.8-1.7,1.7-2.5,2.5 c-1.5,1.5-3,2.9-4.6,4.2c-1,0.8-2.2,1.5-3.4,2c0,0,0,0,0,0c0.2-0.1,0.3-0.3,0.5-0.4c0.7-0.6,1.3-1.1,2-1.7c0.7-0.6,1.3-1.2,2-1.8 c0.8-0.7,1.5-1.4,2.3-2.2c1.3-1.2,2.6-2.5,3.8-3.8c0.5-0.5,1-1,1.4-1.5c0.2-0.3,0.5-0.5,0.7-0.8c0.7-0.7,1.4-1.5,2-2.2 c0.5-0.5,1-1.1,1.5-1.6c0.8-0.9,1.6-1.9,2.4-2.8c1.2-1.5,2.5-2.9,3.7-4.4c2.4-2.9,4.8-5.9,7.3-8.8c1.2-1.5,2.4-3,3.6-4.4 c0.4-0.5,0.8-1,1.2-1.5c0.8-1,1.6-2.1,2.3-3.1c1.1-1.5,2.2-3.1,3.3-4.6c1.1-1.5,2.1-3.1,3.2-4.6c1-1.4,1.9-2.7,2.9-4.1 c0.7-0.9,1.3-1.8,2-2.7c0.3-0.4,0.5-0.7,0.8-1.1c-0.1,0.1-0.1,0.2-0.2,0.4c-0.2,0.4-0.4,0.8-0.5,1.1c-0.1,0.3-0.3,0.6-0.4,0.9 c-0.4,0.7-0.8,1.4-1.2,2.1c-0.4,0.7-0.8,1.5-1.3,2.2c-0.5,0.9-1,1.7-1.5,2.5c-0.5,0.8-1,1.5-1.5,2.3c-0.2,0.3-0.5,0.7-0.7,1 c-0.3,0.4-0.6,0.8-0.8,1.2c-0.5,0.7-1.1,1.4-1.6,2.1c-0.5,0.7-1.1,1.4-1.6,2c-0.5,0.7-1.1,1.4-1.7,2c-0.6,0.7-1.1,1.3-1.7,2 c-0.6,0.8-1.3,1.5-1.9,2.3c-1.2,1.4-2.4,2.9-3.5,4.3c-1.1,1.4-2.2,2.9-3.4,4.3c-1.2,1.5-2.4,3-3.6,4.4c-0.5,0.6-1,1.3-1.6,1.9 c-0.8,0.9-1.6,1.9-2.4,2.8C90.7,74.2,89.4,75.6,88.1,77z M56.3,143.3c2.4-1.7,4.8-3.4,7.2-5.1c2.6-1.8,5.1-3.7,7.6-5.6 c0.5-0.4,1-0.8,1.6-1.2c0.8-0.6,1.6-1.3,2.5-1.9c1.2-0.9,2.3-1.9,3.4-2.8c1.1-1,2.3-1.9,3.4-2.9c0.4-0.4,0.9-0.8,1.3-1.2 c0.6-0.5,1.1-1,1.7-1.5c1.1-1,2.1-2,3.2-3.1c0.7-0.7,1.4-1.4,2.1-2.1c0.6-0.7,1.2-1.4,1.8-2.2c0,3.2,0,6.4-0.1,9.6 c0,6.1-0.1,12.2-0.4,18.3c0,0.8-0.1,1.6-0.1,2.4c0,0,0,0-0.1,0c-1.1,0.1-2.2,0.1-3.3,0.1c-0.5,0-1,0-1.5-0.1c-0.5,0-1.1,0-1.6,0 c-0.5,0-1.1,0-1.6,0.1c-0.6,0-1.2,0-1.9,0c-0.5,0-1,0-1.4,0c-0.6,0-1.2,0-1.8,0c-1.1,0-2.2,0.1-3.3,0.1c-0.5,0-1,0-1.5,0.1 c-0.6,0-1.2,0-1.8,0.1c-1.1,0-2.2,0-3.3,0c-0.6,0-1.1,0-1.7,0c-0.7,0-1.4,0-2,0.1c-0.4,0-0.9,0-1.3,0.1c-0.6,0-1.1,0.1-1.7,0.1 c-1.1,0.1-2.2,0.2-3.3,0.3c-0.6,0-1.1,0.1-1.7,0.1c-0.7,0-1.3,0.1-2,0.1c-0.3,0-0.5,0-0.8,0C54.6,144.5,55.5,143.9,56.3,143.3z M51,146.9c0.3-0.2,0.6-0.4,0.9-0.6c0.5,0,1-0.1,1.5-0.1c0.5,0,1,0,1.5-0.1c0.6,0,1.1,0,1.7-0.1c0.7-0.1,1.4-0.1,2.1-0.2 c0.5,0,0.9-0.1,1.4-0.1c0.5,0,1-0.1,1.6-0.1c0.7,0,1.4-0.1,2.1-0.1c0.4,0,0.9,0,1.3-0.1c0.5,0,1.1,0,1.6,0c0.7,0,1.4,0,2.1,0 c0.5,0,0.9,0,1.4,0c0.5,0,1,0,1.6,0c0.7,0,1.3,0,2-0.1c0.6,0,1.1-0.1,1.7-0.1c1.1-0.1,2.2-0.1,3.3-0.1c0.6,0,1.2,0,1.8,0 c0.5,0,0.9,0,1.4,0c0.5,0,1.1,0,1.6,0c0.6,0,1.1-0.1,1.7-0.1c0.3,0,0.6,0,0.8,0c0.3,0,0.5,0,0.8,0c0.6,0,1.2,0,1.7,0 c0.5,0,1,0,1.6,0c0.4,0,0.9,0,1.3,0c0,0.5,0,1-0.1,1.6c-0.3,0-0.5,0.1-0.8,0.1c-0.5,0-1,0.1-1.5,0.1c-0.5,0-1,0.1-1.6,0.2 c-0.8,0.1-1.6,0.1-2.5,0.1c-1.5,0-3,0-4.5,0.1c-1.6,0.1-3.1,0.2-4.7,0.3c-0.8,0-1.5,0.1-2.3,0.1c-0.8,0-1.5,0.1-2.3,0.1 c-0.5,0-1.1,0-1.6,0c-0.2,0-0.4,0-0.6,0c-0.7,0-1.4,0-2.2,0c-1.4,0-2.8,0.1-4.2,0.1c-0.9,0-1.9,0.1-2.8,0.1c-0.7,0-1.5,0-2.2,0.1 c-0.6,0-1.3,0-1.9,0c-0.8,0-1.5,0-2.3,0c-0.8,0-1.6-0.1-2.4-0.1c-0.5,0-0.9,0-1.4,0c-0.1,0-0.2,0-0.3,0 C50.1,147.5,50.5,147.2,51,146.9z M20.4,163.7c0.2-0.1,0.3-0.1,0.5-0.2c1.4-0.7,2.9-1.4,4.3-2.1c1.5-0.7,2.9-1.5,4.4-2.3 c1.3-0.7,2.6-1.3,3.9-2c1.1-0.6,2.3-1.2,3.4-1.8c1.3-0.7,2.6-1.4,3.9-2.1c1.6-0.9,3.2-1.8,4.8-2.8c0.6-0.4,1.2-0.7,1.8-1.1 c0.1,1.2,0.1,2.4,0.2,3.5c0.1,1,0.1,2.1,0.1,3.1c0.1,1.7,0.1,3.4,0.1,5.1c0,0.7,0,1.3,0,2c0,0.6,0,1.2,0,1.8c0,0.3,0,0.6,0,0.9 c0,0.9,0,1.7-0.1,2.6c0,0.7,0,1.4-0.1,2.2c0,1.6-0.1,3.3-0.1,4.9c0,3.6,0,7.1,0,10.7c0,3.3-0.1,6.6-0.1,9.8c0,1.6,0,3.2,0.1,4.8 c0,1.7,0.1,3.4,0.1,5.1c0,1.6-0.1,3.3-0.1,4.9c0,1.7-0.1,3.4-0.1,5.1c0,0.4,0.3,0.7,0.7,0.7c0,0,0,0,0,0c0.4,0,0.7-0.3,0.7-0.7 c0.1-1.5,0.2-2.9,0.2-4.4c0.1-1.3,0.1-2.7,0.2-4c0-0.8,0.1-1.6,0.1-2.4c0-0.9,0-1.8,0-2.7c0-1.6-0.1-3.2-0.1-4.8 c0-3.5,0-6.9,0-10.4c0-3.3,0-6.5,0-9.8c0-3.5,0-6.9,0.1-10.4c0-1.7,0-3.4,0-5.1c0-1.6,0-3.1-0.1-4.7c0-0.9-0.1-1.7-0.1-2.6 c0-0.7,0-1.3-0.1-2c-0.1-1.1-0.1-2.1-0.2-3.2c0-0.1,0-0.3,0-0.4c0.8,0,1.7,0,2.5,0.1c0.8,0,1.5,0.1,2.3,0.1c0.7,0,1.5,0,2.2,0 c0.3,0,0.5,0,0.8,0c0,0,0.1,0,0.1,0c0.3,0,0.7,0,1,0c0.8,0,1.5,0,2.3,0c0.9,0,1.8-0.1,2.8-0.1c1.4,0,2.7-0.1,4.1-0.1 c0.7,0,1.5,0,2.2,0c0.7,0,1.5,0,2.2,0c0.8,0,1.5,0,2.3,0c0.8,0,1.6-0.1,2.3-0.1c1.5-0.1,3.1-0.2,4.6-0.2c1.5-0.1,3-0.1,4.5-0.1 c0.8,0,1.6-0.1,2.5-0.2c0.7-0.1,1.4-0.2,2.1-0.3c0.6,0,1.2-0.1,1.9-0.2c-0.2,4.3-0.3,8.5-0.5,12.8c-0.3,6.5-0.6,13-1,19.4 c-0.2,2.9-0.4,5.8-0.6,8.7c-0.2,3.1-0.4,6.3-0.7,9.4c-0.1,1.6-0.3,3.1-0.4,4.7c-0.1,1.6-0.3,3.1-0.3,4.7c0,1.4-0.1,2.9-0.1,4.3 c0,0.7,0,1.5,0.1,2.2c0,0.3,0,0.7,0,1c0,0.3,0,0.5,0.1,0.8c0.1,0.4,0.5,0.7,0.9,0.7c0.4,0,0.8-0.3,0.9-0.7c0.1-0.3,0.1-0.6,0.2-1 c0.1-0.5,0.1-1,0.2-1.5c0.1-0.9,0.1-1.9,0.2-2.8c0.1-1,0.1-2,0.2-3c0.1-1.1,0.2-2.1,0.2-3.2c0.2-3.1,0.5-6.2,0.8-9.3 c0.3-3.1,0.5-6.2,0.7-9.3c0.2-2.9,0.4-5.8,0.6-8.7c0.2-3.2,0.4-6.3,0.5-9.5c0.3-6.3,0.6-12.7,0.8-19c0.2-6.1,0.4-12.2,0.4-18.4 c0-6.6,0-13.1-0.1-19.7c-0.1-6.1-0.2-12.2-0.4-18.3c-0.1-3.2-0.2-6.4-0.4-9.6c-0.1-2.8-0.3-5.5-0.5-8.3c0.2-0.3,0.5-0.5,0.7-0.8 c0.7-0.7,1.3-1.5,2-2.2c1.3-1.5,2.5-3,3.8-4.4c0.6-0.7,1.1-1.3,1.7-2c0.5-0.7,1.1-1.3,1.6-2c1.3-1.6,2.5-3.1,3.8-4.7 c0.6-0.7,1.2-1.5,1.8-2.2c0.5-0.6,1-1.2,1.6-1.9c1.2-1.5,2.5-2.9,3.6-4.4c1.2-1.6,2.4-3.1,3.5-4.7c0.3-0.5,0.6-0.9,1-1.4 c0.2-0.3,0.5-0.7,0.7-1.1c0.2-0.4,0.5-0.7,0.7-1.1c0.3-0.5,0.6-1,0.9-1.5c0.5-0.8,0.9-1.6,1.4-2.4c0.4-0.7,0.8-1.5,1.2-2.3 c0.2-0.4,0.4-0.8,0.6-1.2c0.2-0.5,0.5-1.1,0.7-1.6c0.2-0.5,0.4-1.1,0.7-1.6c0.2,0.5,0.4,1.1,0.7,1.6c0.2,0.5,0.5,1.1,0.7,1.6 c0.2,0.4,0.4,0.8,0.6,1.2c0.4,0.8,0.8,1.5,1.2,2.3c0.5,0.8,0.9,1.6,1.4,2.4c0.3,0.5,0.6,1,0.9,1.5c0.2,0.4,0.5,0.7,0.7,1.1 c0.2,0.4,0.5,0.7,0.7,1.1c0.3,0.5,0.6,0.9,1,1.4c1.1,1.6,2.3,3.2,3.5,4.7c1.2,1.5,2.4,3,3.6,4.4c0.5,0.6,1,1.2,1.6,1.9 c0.6,0.7,1.2,1.5,1.8,2.2c1.3,1.5,2.6,3.1,3.8,4.7c0.5,0.7,1.1,1.3,1.6,2c0.5,0.7,1.1,1.3,1.7,2c1.3,1.5,2.5,3,3.8,4.4 c0.7,0.8,1.3,1.5,2,2.2c0.2,0.3,0.5,0.5,0.7,0.8c-0.2,2.8-0.4,5.5-0.5,8.3c-0.1,3.2-0.3,6.4-0.4,9.6c-0.2,6.1-0.3,12.2-0.4,18.3 c-0.1,6.6-0.1,13.1-0.1,19.7c0,6.1,0.2,12.2,0.4,18.4c0.2,6.3,0.5,12.7,0.8,19c0.2,3.2,0.3,6.3,0.5,9.5c0.2,2.9,0.4,5.8,0.6,8.7 c0.2,3.1,0.4,6.2,0.7,9.3c0.3,3.1,0.6,6.2,0.8,9.3c0.1,1.1,0.2,2.1,0.2,3.2c0.1,1,0.1,2,0.2,3c0.1,0.9,0.1,1.9,0.2,2.8 c0,0.5,0.1,1,0.2,1.5c0.1,0.3,0.1,0.6,0.2,1c0.1,0.4,0.5,0.7,0.9,0.7c0.4,0,0.8-0.3,0.9-0.7c0-0.3,0.1-0.5,0.1-0.8c0-0.3,0-0.7,0-1 c0-0.7,0.1-1.5,0.1-2.2c0-1.4,0-2.9-0.1-4.3c0-1.6-0.2-3.1-0.3-4.7c-0.1-1.6-0.3-3.1-0.4-4.7c-0.3-3.1-0.5-6.3-0.7-9.4 c-0.2-2.9-0.4-5.8-0.6-8.7c-0.4-6.5-0.7-12.9-1-19.4c-0.2-4.3-0.4-8.5-0.5-12.8c0.6,0.1,1.2,0.2,1.9,0.2c0.7,0.1,1.4,0.2,2.1,0.3 c0.8,0.1,1.6,0.1,2.5,0.2c1.5,0.1,3,0.1,4.5,0.1c1.5,0.1,3.1,0.2,4.6,0.2c0.8,0,1.6,0.1,2.3,0.1c0.8,0,1.5,0,2.3,0 c0.7,0,1.5,0,2.2,0c0.7,0,1.5,0,2.2,0c1.4,0,2.7,0,4.1,0.1c0.9,0,1.8,0.1,2.8,0.1c0.8,0,1.5,0,2.3,0c0.3,0,0.7,0,1,0 c0,0,0.1,0,0.1,0c0.3,0,0.5,0,0.8,0c0.7,0,1.5,0,2.2,0c0.8,0,1.5-0.1,2.3-0.1c0.8,0,1.7-0.1,2.5-0.1c0,0.1,0,0.3,0,0.4 c-0.1,1.1-0.1,2.1-0.2,3.2c0,0.7,0,1.3-0.1,2c0,0.9-0.1,1.7-0.1,2.6c0,1.6-0.1,3.1-0.1,4.7c0,1.7,0,3.4,0,5.1 c0.1,3.5,0.1,6.9,0.1,10.4c0,3.3,0,6.5,0,9.8c0,3.5,0,6.9,0,10.4c0,1.6-0.1,3.2-0.1,4.8c0,0.9,0,1.8,0,2.7c0,0.8,0,1.6,0.1,2.4 c0,1.3,0.1,2.7,0.2,4c0.1,1.5,0.1,2.9,0.2,4.4c0,0.4,0.3,0.7,0.7,0.7c0,0,0,0,0,0c0.4,0,0.7-0.3,0.7-0.7c0-1.7-0.1-3.4-0.1-5.1 c0-1.6-0.1-3.3-0.1-4.9c0-1.7,0-3.4,0.1-5.1c0-1.6,0.1-3.2,0.1-4.8c0-3.3,0-6.6-0.1-9.8c0-3.6,0-7.1,0-10.7c0-1.7,0-3.3-0.1-4.9 c0-0.7,0-1.4-0.1-2.2c0-0.9,0-1.7-0.1-2.6c0-0.3,0-0.6,0-0.9c0-0.6,0-1.2,0-1.8c0-0.7,0-1.3,0-2c0-1.7,0-3.4,0.1-5.1 c0-1,0.1-2.1,0.1-3.1c0.1-1.2,0.1-2.4,0.2-3.5c0.6,0.4,1.2,0.8,1.8,1.1c1.6,0.9,3.2,1.9,4.8,2.8c1.3,0.7,2.6,1.4,3.9,2.1 c1.1,0.6,2.2,1.2,3.4,1.8c1.3,0.7,2.6,1.4,3.9,2c1.5,0.8,2.9,1.5,4.4,2.3c1.4,0.7,2.9,1.4,4.3,2.1c0.2,0.1,0.3,0.1,0.5,0.2 c0.5,0.2,1,0.4,1.4,0.6c0.3,0.1,0.6,0.2,0.9,0.4c0,0-0.1,0.1-0.1,0.1c-0.6,0.8-1,1.8-1.2,2.8c-0.2,0.9-0.3,1.9-0.5,2.9 c-0.1,1.1-0.2,2.3-0.2,3.4c0,0.8,0,1.6-0.1,2.4c0,0.7,0,1.4,0,2.1c0,3.1,0,6.3,0.1,9.4c0,2.9,0.1,5.9,0.2,8.8 c0.1,2.8,0.2,5.7,0.4,8.5c0.1,2.8,0.2,5.5,0.3,8.3c0,1.3,0,2.5,0,3.8c0,0.5,0,1,0,1.5c-0.1,0-0.1,0-0.2-0.1 c-0.6-0.2-1.2-0.4-1.9-0.5c-0.3,0-0.6-0.1-1-0.1c-0.4,0-0.7-0.1-1.1-0.1c-0.8-0.1-1.7,0-2.5,0c-1.1,0-2.1,0.1-3.2,0 c-1-0.1-2-0.2-3-0.2c-1.1-0.1-2.2-0.1-3.4-0.1c-0.8,0-1.6,0-2.5,0c-1.4,0-2.7,0-4.1,0c-1-0.1-2-0.1-2.9-0.2 c-0.9-0.1-1.8-0.2-2.7-0.3c-1-0.1-2-0.1-3-0.1c-1,0-2,0.1-3,0.2c-2,0.1-4.1,0.3-6.1,0.4c-1.1,0-2.1,0.1-3.2,0.1c-1,0-2,0-3,0 c-0.9,0-1.9-0.1-2.8-0.2c-1-0.1-2.1-0.2-3.1-0.3c-2.1-0.1-4.3-0.1-6.4,0c-2.1,0.1-4.1,0.2-6.2,0.3c-1,0-1.9,0.1-2.9,0.1 c-1,0-1.9,0-2.9-0.1c-2-0.1-4.1-0.3-6.1-0.4c-1.1-0.1-2.3-0.1-3.4-0.1c-1,0-2.1,0.1-3.1,0.1c-1.1,0.1-2.3,0.1-3.4,0.2 c0.1-0.1,0.2-0.3,0.3-0.5c0.1-0.5,0.1-1.1,0.2-1.6c0-0.4,0.1-0.8,0.1-1.3c0.1-0.8,0.1-1.7,0.2-2.5c0.1-1.7,0.1-3.5,0.1-5.3 c0.1-3.4,0-6.8,0-10.2c0-1.8,0-3.5,0-5.3c0-1.7,0-3.4,0-5.1c0-0.9-0.1-1.8-0.1-2.6c0-0.9-0.1-1.7-0.2-2.6c-0.1-0.8-0.1-1.7-0.2-2.5 c-0.1-0.9-0.2-1.7-0.3-2.6c-0.1-0.9-0.3-1.8-0.4-2.7c0-0.3-0.1-0.6-0.1-0.8c-0.1-0.5-0.3-1.1-0.4-1.6c-0.1-0.3-0.1-0.7-0.2-1 c-0.2-0.5-0.3-1-0.5-1.5c-0.2-0.5-0.3-1-0.5-1.6c-0.4-1.2-0.9-2.3-1.5-3.4c-0.4-0.7-0.8-1.4-1.3-2c-0.5-0.7-1-1.3-1.5-1.9 c-1.1-1.3-2.5-2.3-3.9-3.2c-1.4-0.9-2.9-1.6-4.4-2.1c-0.8-0.3-1.6-0.5-2.4-0.7c-0.2,0-0.5-0.1-0.7-0.1c-0.1,0-0.1-0.1-0.2-0.1 c-0.1,0-0.2,0-0.3,0c-0.2,0-0.3,0-0.5,0c-0.2,0-0.3,0-0.5,0c-0.1,0-0.2,0-0.3,0c-0.1,0-0.1,0-0.2,0.1c-0.2,0-0.5,0.1-0.7,0.1 c-0.8,0.2-1.6,0.4-2.4,0.7c-1.6,0.5-3.1,1.2-4.4,2.1c-1.4,0.9-2.8,1.9-3.9,3.2c-0.5,0.6-1,1.3-1.5,1.9c-0.5,0.7-0.9,1.3-1.3,2 c-0.6,1.1-1.1,2.2-1.5,3.4c-0.2,0.5-0.4,1-0.5,1.6c-0.2,0.5-0.3,1-0.5,1.5c-0.1,0.3-0.2,0.6-0.2,1c-0.1,0.5-0.3,1.1-0.4,1.6 c-0.1,0.3-0.1,0.6-0.1,0.8c-0.1,0.9-0.3,1.8-0.4,2.7c-0.1,0.9-0.2,1.7-0.3,2.6c-0.1,0.8-0.1,1.7-0.2,2.5c-0.1,0.9-0.1,1.7-0.2,2.6 c0,0.9-0.1,1.8-0.1,2.6c0,1.7-0.1,3.4,0,5.1c0,1.8,0,3.5,0,5.3c0,3.4-0.1,6.8,0,10.2c0,1.8,0,3.5,0.1,5.3c0.1,0.8,0.1,1.7,0.2,2.5 c0,0.4,0.1,0.8,0.1,1.3c0,0.5,0.1,1.1,0.2,1.6c0.1,0.4,0.5,0.7,0.9,0.7c0.1,0,0.1,0,0.2,0c0.4-0.1,0.7-0.4,0.7-0.9 c0-1.2,0-2.3-0.1-3.5c0-0.8-0.1-1.6-0.1-2.4c0-0.9,0-1.8,0-2.7c0-1.7,0-3.3,0-5c0-1.8,0-3.6,0.1-5.4c0-1.6,0-3.2,0-4.8 c0-3.4-0.1-6.8,0.1-10.2c0-0.9,0.1-1.8,0.1-2.7c0-0.5,0.1-1,0.1-1.5c0-0.4,0-0.7,0.1-1.1c0-0.5,0.1-1,0.1-1.5c0-0.4,0-0.7,0.1-1.1 c0.1-0.8,0.2-1.7,0.3-2.5c0.1-0.6,0.2-1.1,0.3-1.7c0.1-0.4,0.2-0.8,0.3-1.2c0.2-0.7,0.4-1.3,0.6-2c0.3-1.1,0.7-2.2,1.2-3.2 c0.7-1.6,1.6-3.2,2.8-4.6c0.4-0.5,0.9-1,1.4-1.5c0.5-0.5,1-0.9,1.5-1.3c1.4-1,2.8-1.8,4.4-2.4c0.6-0.2,1.2-0.4,1.9-0.6 c0.6-0.2,1.2-0.3,1.8-0.4c0.1,0,0.2,0,0.4,0c0.1,0,0.2,0,0.4,0c0.6,0.1,1.2,0.2,1.8,0.4c0.6,0.2,1.3,0.4,1.9,0.6 c1.6,0.6,3,1.4,4.4,2.4c0.5,0.4,1,0.8,1.5,1.3c0.5,0.5,1,1,1.4,1.5c1.1,1.4,2,3,2.8,4.6c0.5,1,0.8,2.1,1.2,3.2 c0.2,0.7,0.4,1.3,0.6,2c0.1,0.4,0.2,0.8,0.3,1.2c0.1,0.6,0.2,1.1,0.3,1.7c0.1,0.8,0.2,1.7,0.3,2.5c0,0.4,0.1,0.7,0.1,1.1 c0,0.5,0.1,1,0.1,1.5c0,0.4,0,0.7,0.1,1.1c0,0.5,0.1,1,0.1,1.5c0.1,0.9,0.1,1.8,0.1,2.7c0.2,3.4,0.1,6.8,0.1,10.2 c0,1.6,0,3.2,0,4.8c0,1.8,0,3.6,0.1,5.4c0,1.7,0,3.3,0,5c0,0.9,0,1.8,0,2.7c0,0.8-0.1,1.6-0.1,2.4c-0.1,1.2-0.1,2.3-0.1,3.5 c0,0.3,0.2,0.6,0.4,0.7c-0.6,0-1.2,0.1-1.8,0.1c-1.1,0.1-2.2,0.1-3.3,0.2c-1.1,0-2.1,0-3.2,0c-0.9,0-1.8-0.1-2.8-0.1 c-2.2-0.1-4.4-0.2-6.7,0c-2.3,0.2-4.7,0.5-7,0.8c-1.1,0.1-2.2,0.3-3.4,0.4c-1.2,0.1-2.4,0.3-3.6,0.4c-0.6,0.1-1.2,0.1-1.8,0.1 c-0.5,0-0.9,0-1.4,0.1c-1.3,0-2.6,0.1-3.8,0.1c-4.6,0.1-9.1,0.5-13.7,0.8c-1.2,0.1-2.4,0.1-3.6,0.2c-0.5,0-1,0-1.5,0 c-0.5,0-1.1,0-1.6,0c-2.3,0-4.5,0-6.8,0c-2.3,0-4.6,0-6.9,0c-2.4,0-4.7,0.1-7.1,0.1c-2.4,0-4.7,0-7.1,0.1c-2.3,0.1-4.6,0.1-7,0.3 c-2.4,0.1-4.9,0.3-7.3,0.4c-2.2,0.1-4.5,0.2-6.7,0.2c-2.4,0-4.8,0.1-7.2,0.2c-2.2,0.1-4.4,0.1-6.6,0c-0.6,0-1.3-0.1-1.9-0.2 c0,0,0-0.1,0.1-0.1c0.1-0.8,0.2-1.6,0.2-2.4c0-0.6,0-1.2,0-1.8c0-1.3,0-2.5,0-3.8c0.1-2.8,0.2-5.5,0.3-8.3c0.1-2.8,0.3-5.7,0.4-8.5 c0.1-2.9,0.2-5.9,0.2-8.8c0-3.1,0.1-6.3,0.1-9.4c0-0.7,0-1.4,0-2.1c0-0.8,0-1.6-0.1-2.4c-0.1-1.1-0.1-2.3-0.2-3.4 c-0.1-1-0.2-1.9-0.5-2.9c-0.3-1-0.6-2-1.2-2.8c0,0-0.1-0.1-0.1-0.1c0.3-0.1,0.6-0.2,0.9-0.4C19.4,164.1,19.9,163.9,20.4,163.7z"></path> <path d="M27.2,205.2c-0.1,0.1-0.1,0.2-0.1,0.3c0,0.4,0.3,0.6,0.6,0.6c0.3,0,0.7,0,1,0.1c0.4,0,0.8,0.1,1.2,0.1 c0.4,0,0.8,0.1,1.3,0.1c0,0,0.1,0,0.1,0c0.4,0,0.8,0,1.2,0c1.2-0.1,2.3,0,3.5-0.3c0.2-0.1,0.5-0.1,0.7-0.2c0.2,0,0.3-0.1,0.5-0.1 c0.2-0.1,0.5-0.1,0.7-0.3c0.3-0.2,0.5-0.4,0.6-0.6c0.1-0.2,0.2-0.4,0.2-0.6c0-0.3,0.1-0.5,0.1-0.8c0,0.1,0,0.2,0,0.2 c0-0.1,0-0.3,0.1-0.4c0-0.1,0.1-0.3,0.1-0.4c0.1-0.5,0.2-1,0.2-1.6c0-0.5,0.1-1,0.1-1.5c0-1-0.1-2.1-0.1-3.1c-0.1-2-0.2-4-0.4-6 c-0.2-3.8-0.2-7.6-0.4-11.4c0-1-0.1-2-0.1-3.1c0-0.5,0-1-0.1-1.6c0-0.6-0.1-1.1-0.1-1.7c-0.1-1.1-0.3-2.3-0.7-3.3 c-0.2-0.7-0.5-1.3-0.9-1.9c-0.3-0.5-0.7-1-1.2-1.4c-0.5-0.3-1.2-0.5-1.8-0.4c-0.3,0.1-0.6,0.2-0.9,0.3c-0.3,0.2-0.5,0.3-0.7,0.6 c-0.2,0.3-0.4,0.5-0.6,0.8c-0.1,0.1-0.1,0.2-0.2,0.3c-0.1,0.2-0.2,0.4-0.3,0.6c-0.1,0.3-0.2,0.5-0.3,0.8c-0.1,0.3-0.2,0.6-0.3,0.8 c-0.1,0.2-0.1,0.5-0.2,0.7c-0.1,0.2-0.1,0.3-0.2,0.5c-0.3,1-0.5,1.9-0.7,2.9c-0.4,2-0.8,4-1,6c-0.1,0.5-0.1,1-0.2,1.5 c0,0.6-0.1,1.2-0.1,1.8c-0.1,1-0.1,1.9-0.2,2.9c-0.1,2-0.2,4-0.3,6c-0.1,1-0.1,2-0.1,2.9c0,0.9,0,1.8,0,2.7c0,1,0,2-0.1,3 c0,0.6-0.1,1.1-0.1,1.7c0,0.2,0,0.4-0.1,0.7c-0.1,0.1-0.1,0.2-0.1,0.3c-0.1,0.3-0.1,0.6,0,0.9C26.8,205,27,205.1,27.2,205.2z M32.6,204.9c-0.6,0.1-1.2,0.1-1.8,0.1c-0.3,0-0.6,0-0.8,0c-0.3,0-0.5,0-0.8-0.1c-0.4,0-0.8-0.1-1.3-0.1c0-0.1,0.1-0.1,0.1-0.2 c0.1-0.1,0.1-0.2,0.1-0.3c1.7,0,3.3,0.1,5,0.1c0.1,0,0.1,0,0.2,0c0.7,0,1.4,0,2.1-0.1c0.1,0,0.2,0,0.3,0c-0.5,0.1-0.9,0.2-1.4,0.3 C33.8,204.9,33.2,204.9,32.6,204.9z M36.5,176.9c0,0.8,0,1.7,0,2.5c0-0.1,0-0.3-0.1-0.3c-0.1-0.1-0.3-0.2-0.4-0.2 c-0.6-0.1-1.1-0.1-1.7-0.1c-0.1,0-0.1,0-0.2,0c0.2-0.4,0.3-0.8,0.5-1.1c0,0,0,0.1,0,0.1c0.1-0.2,0.2-0.4,0.3-0.7 c0.4-1,0.9-1.9,1.3-2.9c0.1-0.3,0.2-0.5,0.3-0.8C36.4,174.5,36.5,175.7,36.5,176.9z M34.9,168.2c0.3,0.5,0.6,1,0.8,1.6 c0.2,0.6,0.3,1.1,0.4,1.7c-0.2,0.5-0.4,1-0.6,1.5c-0.2,0.7-0.5,1.3-0.8,2c-0.3,0.6-0.5,1.2-0.8,1.8c-0.2,0.4-0.4,0.8-0.6,1.2 c0-0.1,0-0.2,0-0.3c0-0.4,0.1-0.9,0.1-1.3c0.1-0.8,0.1-1.6,0.2-2.5c0.1-1.1,0.1-2.1,0.2-3.2c0.1-0.5,0.1-1.1,0.2-1.6 c0.1-0.5,0.1-1,0.2-1.5c0.1,0,0.1,0.1,0.2,0.1C34.6,167.8,34.8,168,34.9,168.2z M31,173.3c0.2-0.7,0.3-1.5,0.5-2.2 c0.2-0.7,0.4-1.3,0.7-2c0.2-0.4,0.3-0.8,0.6-1.1c0.1-0.1,0.2-0.2,0.3-0.3c0.1,0,0.1-0.1,0.2-0.1c0,0.4-0.1,0.8-0.1,1.2 c0,0.4-0.1,0.9-0.1,1.3c-0.1,0.9-0.1,1.7-0.1,2.6c0,1.1-0.1,2.1-0.1,3.2c0,0.5,0,1.1,0,1.6c0,0.1,0,0.3,0,0.4 c-0.2-0.4-0.4-0.8-0.5-1.2c-0.1-0.1-0.1-0.3-0.2-0.4c-0.1-0.2-0.1-0.3-0.2-0.5c-0.1-0.3-0.2-0.5-0.3-0.8c0,0,0,0,0,0c0,0,0,0,0,0 c0,0,0,0,0,0c0,0,0,0,0,0c-0.2-0.5-0.4-1-0.6-1.5c0,0,0-0.1,0-0.1C31,173.4,31,173.3,31,173.3z M31.5,174.9 C31.5,174.9,31.5,174.9,31.5,174.9C31.5,174.9,31.5,174.9,31.5,174.9C31.5,174.9,31.5,174.9,31.5,174.9z M30.1,177.8 c0.1-0.7,0.2-1.4,0.4-2c0.1-0.4,0.2-0.9,0.3-1.3c0.1,0.2,0.1,0.3,0.2,0.5c0.2,0.4,0.3,0.7,0.5,1.1c0.4,0.8,0.7,1.6,1,2.4 c0,0,0,0,0-0.1c0,0.1,0,0.1,0.1,0.2c0,0,0.1,0.1,0.1,0.1c-0.5,0-1,0-1.4-0.1c-0.2,0-0.4,0-0.6,0c-0.2,0-0.5,0-0.7-0.1 C30,178.3,30,178,30.1,177.8z M28.5,198.3c0-0.9,0-1.8,0.1-2.7c0.1-1,0.1-2,0.2-2.9c0.1-1.1,0.2-2.1,0.2-3.2 c0.1-0.9,0.2-1.9,0.2-2.8c0.1-1,0.1-1.9,0.2-2.9c0-0.6,0.1-1.2,0.1-1.8c0-0.5,0.1-1,0.2-1.5c0-0.4,0.1-0.7,0.1-1c0.1,0,0.1,0,0.2,0 c0.2,0,0.4,0,0.5,0c0.2,0,0.4,0,0.6,0.1c0.5,0,1.1,0.1,1.6,0.1c0.5,0,1,0.1,1.5,0.2c0.6,0.1,1.1,0.2,1.7,0.2c0,0,0,0,0,0 c0.3,0,0.5-0.2,0.6-0.5c0,0.3,0,0.7,0,1c0,2,0,4,0,6.1c0,2,0,3.9,0,5.9c0.1,2,0.1,4,0.2,6c0,1,0,2,0,2.9c0,0.5,0,0.9,0,1.4 c0,0.1,0,0.1,0,0.2c0,0,0,0-0.1,0c-0.4,0-0.8,0-1.2,0c-0.8,0-1.5,0-2.3,0c-1.7-0.1-3.4-0.2-5-0.3c0-0.5,0.1-1,0.1-1.4 C28.4,200.3,28.4,199.3,28.5,198.3z"></path> <path d="M62.1,204.9c0,0.1,0,0.2,0,0.2c0,0.1,0,0.3,0,0.4c0,0.1,0.1,0.2,0.2,0.2c0,0.1,0,0.2,0,0.3c0,0.4,0.3,0.8,0.8,0.8 c0.1,0,0.3,0,0.4,0c0.1,0,0.2,0,0.3,0c0.5,0,1.1,0,1.6-0.1c0.7-0.1,1.5-0.3,2.2-0.4c0.7-0.1,1.5-0.2,2.2-0.3 c0.8-0.2,1.5-0.3,2.3-0.5c0.2,0,0.4-0.1,0.6-0.1c0.2-0.1,0.5-0.1,0.7-0.3c0.2-0.1,0.5-0.3,0.6-0.6c0.2-0.3,0.2-0.7,0.3-1 c0-0.2,0-0.4,0.1-0.5c0.1-0.8,0.1-1.5,0.1-2.3c0-1.7,0.1-3.4,0.1-5.1c0-3.2-0.1-6.3-0.1-9.5c0-1.6,0-3.2-0.1-4.9 c0-0.9,0-1.7-0.1-2.6c0-0.9-0.1-1.8-0.1-2.7c0-0.8-0.1-1.7-0.2-2.5c0-0.4-0.1-0.8-0.1-1.3c0-0.4-0.1-0.9-0.2-1.3 c-0.2-1.2-0.4-2.3-0.8-3.4c-0.2-0.6-0.5-1.1-0.8-1.6c-0.3-0.5-0.6-1-1-1.4c-0.2-0.2-0.5-0.4-0.7-0.7c-0.2-0.1-0.4-0.3-0.6-0.4 c-0.2-0.1-0.5-0.2-0.7-0.3c-0.2-0.1-0.5-0.1-0.8-0.1c-0.3,0-0.7,0.1-1,0.3c-0.2,0.1-0.5,0.3-0.7,0.5c-0.4,0.4-0.7,0.8-0.9,1.3 c-0.2,0.5-0.4,1-0.6,1.5c-0.1,0.2-0.1,0.5-0.2,0.7c-0.1,0.4-0.2,0.8-0.3,1.2c-0.2,0.8-0.3,1.6-0.5,2.4c-0.3,1.7-0.5,3.4-0.7,5.1 c-0.4,3.2-0.6,6.4-0.8,9.6c-0.1,1.6-0.2,3.3-0.3,4.9c0,0.8-0.1,1.6-0.1,2.3c0,0.8-0.1,1.6-0.1,2.4c0,0.9,0,1.7,0,2.6 c0,0.8,0.1,1.7,0.1,2.5c0,0.8,0,1.6,0,2.4c0,0.4,0,0.8,0,1.2C62.1,204.3,62.1,204.6,62.1,204.9z M66.3,204.8 c-0.6,0.1-1.2,0.3-1.9,0.4c-0.5,0-1,0.1-1.5,0.1c0,0,0-0.1,0-0.1c0-0.1,0-0.2,0-0.3c0-0.3,0.1-0.6,0.1-0.9c0,0,0,0,0,0 c0.2,0,0.4,0.1,0.6,0.1c0.4,0,0.7,0.1,1.1,0.1c0.3,0,0.7,0,1,0c1.2,0,2.3,0.1,3.5,0.1c0.1,0,0.1,0,0.2,0c-0.4,0.1-0.9,0.2-1.3,0.3 C67.5,204.6,66.9,204.7,66.3,204.8z M70.3,166.1c0.4,0.5,0.7,1.1,0.9,1.7c0.2,0.6,0.4,1.1,0.5,1.7c0.1,0.4,0.2,0.9,0.2,1.4 c0,0.1-0.1,0.1-0.1,0.2c-0.2,0.5-0.4,1.1-0.6,1.6c-0.4,0.9-0.8,1.9-1.2,2.8c0,0,0,0,0,0c-0.2,0.4-0.4,0.8-0.6,1.3 c-0.1,0.3-0.3,0.6-0.5,1c0,0,0,0,0,0c0-0.3,0-0.6,0-0.9c0-2.1-0.1-4.2-0.1-6.3c0-1,0-2,0-3c0-0.6,0-1.2,0-1.7c0-0.3,0-0.6,0-0.8 c0,0,0-0.1,0-0.1c0.2,0.1,0.3,0.2,0.5,0.3C69.7,165.4,70,165.7,70.3,166.1z M64.7,178c0.1-0.9,0.2-1.7,0.3-2.6 c0.1-0.8,0.2-1.5,0.3-2.3c0.4,1.2,0.8,2.5,1.2,3.8c0.1,0.5,0.3,0.9,0.5,1.4c0.1,0.2,0.2,0.4,0.2,0.6c-0.3,0-0.6,0-0.9,0 c-0.3,0-0.5,0-0.8,0c-0.2,0-0.5,0-0.7,0c-0.1,0-0.2,0-0.3,0C64.7,178.6,64.7,178.3,64.7,178z M66.4,168c0.2-0.8,0.4-1.5,0.7-2.2 c0.1-0.3,0.3-0.6,0.5-0.8c0.1-0.1,0.2-0.2,0.3-0.3c0.1,0,0.1-0.1,0.2-0.1c0,0,0,0,0.1,0c0,0,0,0,0,0c0,0.2,0,0.5,0,0.7 c0,0.3,0,0.5,0,0.8c0,1.1,0,2.3-0.1,3.4c0,1.1,0,2.2,0,3.3c0,1,0,2.1,0,3.1c0,0.8,0,1.6,0.1,2.4c0-0.1-0.1-0.1-0.1-0.2c0,0,0,0,0,0 c0-0.1-0.1-0.2-0.1-0.2c-0.4-1-0.7-2-1-3.1c-0.2-0.5-0.3-1-0.5-1.5c-0.1-0.4-0.3-0.8-0.5-1.3c-0.1-0.2-0.1-0.3-0.2-0.5 c0.1-0.6,0.2-1.3,0.3-1.9C66.1,169.1,66.2,168.6,66.4,168z M63.1,201.1c0-0.3,0-0.6,0-0.9c0-0.8,0-1.7,0-2.5c0-0.5,0-1,0-1.6 c0-0.4,0-0.7,0-1.1c0.1-0.9,0.1-1.8,0.2-2.7c0.1-0.8,0.2-1.7,0.2-2.5c0.1-0.8,0.2-1.6,0.2-2.4c0.2-1.6,0.3-3.2,0.4-4.8 c0.1-0.8,0.2-1.7,0.3-2.5c0.1,0,0.2,0,0.2,0c0.4,0,0.8,0,1.2,0c0.2,0,0.4,0,0.7,0.1c0.5,0.1,1,0.1,1.5,0.2c0.5,0.1,0.9,0.1,1.4,0.2 c0.2,0,0.5,0,0.7,0.1c0.1,0,0.1,0,0.2,0c0,0,0.1,0,0.1,0c0.2,0,0.4-0.1,0.6-0.2c0.2-0.1,0.3-0.3,0.4-0.5c0-0.1,0-0.3,0-0.4 c-0.1-0.3-0.3-0.5-0.5-0.6c-0.1,0-0.3-0.1-0.4-0.1c-0.1,0-0.2,0-0.3,0c-0.4,0-0.8,0-1.2,0c0,0,0,0,0,0c0.3-0.5,0.7-1.1,0.9-1.7 c0.2-0.5,0.5-1,0.7-1.5c0,0,0,0,0,0c0.1-0.2,0.1-0.3,0.2-0.5c0,0,0,0,0,0c0.1-0.1,0.1-0.3,0.2-0.4c0,0,0,0,0,0c0,0,0,0,0-0.1 c0,0,0,0,0,0c0,0,0,0,0,0c0,0,0,0,0,0c0,0,0,0,0,0c0.1-0.1,0.1-0.3,0.2-0.4c0,0,0,0,0-0.1c0,0,0,0,0,0c0,0,0,0,0,0c0,0,0,0,0,0 c0,0,0,0,0,0c0.3-0.7,0.6-1.4,0.8-2c0,0.3,0.1,0.6,0.1,1c0,0,0,0,0,0c0,0,0,0.1,0,0.1c0,0,0,0,0,0c0,0,0,0,0,0c0,0,0,0,0,0 c0,0,0,0.1,0,0.1c0,0.4,0,0.7,0.1,1.1c0.2,3.3,0.2,6.5,0.2,9.8c0,3.3-0.1,6.7-0.1,10c0,1.6-0.1,3.2-0.1,4.8c0,0.9,0,1.7,0,2.6 c0,0.4,0,0.7,0,1.1c0,0.1,0,0.2,0,0.3c-0.2,0-0.4,0-0.6,0c-1.2,0-2.4,0-3.6,0c-0.7,0-1.4,0-2.1,0c-0.9,0-1.8,0.1-2.7-0.1 c0,0-0.1,0-0.1,0c0,0-0.1,0-0.1-0.1c0-0.2,0-0.4,0-0.5C63.1,202,63.1,201.5,63.1,201.1z"></path> <path d="M120.6,76.1c0.3,0.4,0.7,0.7,1.1,1c0.5,0.3,1,0.6,1.5,0.7c0.1,0,0.3,0,0.4,0.1c0.4,0.2,0.8,0.4,1.2,0.5c0.1,0,0.1,0,0.2,0 c0.1,0,0.2,0,0.2-0.1c0.1,0,0.1,0.1,0.2,0.1c0.1,0,0.1,0,0.2,0c0.4-0.2,0.8-0.3,1.2-0.5c0.1,0,0.3,0,0.4-0.1c0.5-0.2,1-0.4,1.5-0.7 c0.4-0.3,0.7-0.6,1.1-1c0.3-0.4,0.6-0.8,0.8-1.3c0.2-0.5,0.3-1,0.4-1.6c0-0.6,0-1.1-0.1-1.6c0,0,0-0.1,0-0.1c0-0.3,0-0.6-0.1-0.9 c-0.1-0.5-0.3-1-0.6-1.5c-0.3-0.5-0.6-0.9-1-1.4c-0.2-0.2-0.4-0.4-0.6-0.5c-0.2-0.2-0.5-0.3-0.8-0.4c-0.2-0.1-0.4-0.1-0.6-0.2 c-0.3-0.1-0.7-0.1-1-0.1c0,0-0.1-0.1-0.1-0.1c-0.2-0.1-0.4,0-0.6,0.1c0,0,0,0,0,0c0,0,0,0,0,0c-0.2-0.1-0.4-0.1-0.6-0.1 c0,0-0.1,0.1-0.1,0.1c-0.3,0-0.7,0.1-1,0.1c-0.2,0-0.4,0.1-0.6,0.2c-0.3,0.1-0.5,0.3-0.8,0.4c-0.2,0.2-0.4,0.3-0.6,0.5 c-0.4,0.4-0.7,0.9-1,1.4c-0.3,0.5-0.5,0.9-0.6,1.5c-0.1,0.3-0.1,0.6-0.1,0.9c0,0,0,0.1,0,0.1c-0.1,0.5-0.2,1.1-0.1,1.6 c0,0.5,0.2,1.1,0.4,1.6C120,75.3,120.3,75.7,120.6,76.1z M128.2,74.9c-0.3,0.3-0.6,0.7-0.9,0.9c-0.4,0.3-0.9,0.6-1.4,0.8 c-0.2,0.1-0.4,0.1-0.6,0.2c0,0,0.1,0,0.1,0c0,0-0.1,0-0.1,0c0,0,0,0-0.1,0c0,0,0,0-0.1,0c0,0-0.1,0-0.1,0c0,0,0.1,0,0.1,0 c-0.2,0-0.4-0.1-0.6-0.2c-0.5-0.2-1-0.5-1.4-0.8c-0.3-0.3-0.6-0.6-0.9-0.9c-0.1-0.1-0.2-0.3-0.2-0.4c-0.2-0.6-0.3-1.2-0.4-1.8 c0-0.3,0-0.5,0-0.8c0.1-0.6,0.3-1.1,0.5-1.7c0.2-0.5,0.4-0.9,0.7-1.3c0.1-0.1,0.3-0.3,0.4-0.4c0.1,0,0.1-0.1,0.2-0.1 c0.3-0.1,0.6-0.2,1-0.2c0.2,0,0.5,0,0.7,0c0.1,0,0.1,0,0.2,0c0.1,0,0.1,0,0.2,0c0.2,0,0.5,0,0.7,0c0.3,0,0.7,0.1,1,0.2 c0.1,0,0.1,0.1,0.2,0.1c0.1,0.1,0.3,0.3,0.4,0.4c0.3,0.4,0.5,0.8,0.7,1.3c0.2,0.5,0.4,1.1,0.5,1.7c0,0.3,0,0.5,0,0.8 c-0.1,0.6-0.2,1.2-0.4,1.8C128.4,74.6,128.3,74.7,128.2,74.9z"></path> <polygon points="103.6,141.2 103.6,141.2 103.6,141.2 "></polygon> <path d="M102.3,129.1c0,0.9,0.1,1.7,0.1,2.6c0.1,1.6,0.1,3.2,0.2,4.8c0,0.7,0.1,1.5,0.1,2.2c0,0.4,0,0.8,0,1.3c0,0.2,0,0.4,0,0.6 c0,0.3,0,0.6,0.2,0.8c0.2,0.2,0.5,0.1,0.6-0.1c0,0,0-0.1,0.1-0.1c0-0.1,0-0.2,0-0.2c0-0.1,0-0.1,0-0.2c0-0.1,0-0.3,0-0.4 c0.1-1.6,0.1-3.2,0.2-4.8c0-1.6,0-3.1,0-4.7c0-0.8,0-1.5,0-2.3c0-0.9,0-1.8,0-2.6c0-0.3,0-0.6,0-0.9c0-0.5,0-1,0.1-1.5 c0-0.3,0.1-0.6,0.1-0.9c0-0.1,0-0.2,0-0.3c0.1,0,0.1,0,0.2,0c1.1,0.1,2.2,0.2,3.3,0.2c0.3,0,0.5,0,0.8,0c0.8,0,1.6,0,2.4,0.1 c0.3,0.1,0.6,0.1,0.9,0.1c0,0,0,0,0,0c0,0,0.1,0,0.1-0.1c0,1.4,0,2.8,0,4.2c0,1.7,0,3.4,0.1,5.1c0,1.5,0.1,3,0.2,4.5 c0,0.7,0.1,1.4,0.1,2.1c0,0,0,0,0,0c-0.6,0-1.3,0-1.9,0.1c-1,0.1-2.1,0.2-3.1,0.4c-0.5,0.1-1.1,0.2-1.6,0.3c-0.2,0-0.4,0.1-0.7,0.1 c-0.3,0.1-0.6,0.1-0.9,0.2c-0.2,0.1-0.2,0.4-0.1,0.5c0.1,0.1,0.1,0.1,0.2,0.1c0,0,0,0,0,0c0,0,0,0,0,0c0.1,0,0.1,0,0.2,0 c0,0-0.1,0-0.1,0c0.4,0,0.8-0.1,1.2-0.1c0.4,0,0.7-0.1,1.1-0.1c0.7-0.1,1.4-0.2,2.2-0.2c0.6,0,1.1-0.1,1.7-0.1c0.3,0,0.6,0,0.9,0 c0.3,0,0.7,0,1-0.1c0,0,0,0,0,0c0,0.1,0,0.2,0,0.4c0,0.2,0,0.4,0,0.6c0,0,0,0,0,0c-0.3,0.1-0.6,0.1-1,0.1c-0.3,0-0.6,0.1-1,0.1 c-0.6,0.1-1.3,0.2-1.9,0.3c-0.4,0-0.7,0.1-1.1,0.1c-0.5,0-0.9,0.1-1.4,0.2c-0.7,0.1-1.4,0.2-2.1,0.3c-0.2,0-0.3,0-0.5,0 c-0.3,0-0.6,0.3-0.6,0.6c0,0.2,0.1,0.3,0.2,0.4c0.1,0.1,0.2,0.2,0.4,0.2c0.1,0,0.3,0,0.4,0c0.3,0,0.7,0,1-0.1 c0.5,0,1.1-0.1,1.6-0.1c0.4,0,0.7,0,1.1,0c0.4,0,0.7,0,1.1,0c0.8,0,1.6-0.1,2.4-0.2c0.4,0,0.8-0.1,1.2-0.1c0.2,0,0.5,0,0.7-0.1 c0.2-0.1,0.5-0.1,0.7-0.3c0.3-0.2,0.5-0.4,0.5-0.8c0.2-0.8,0.3-1.6,0.3-2.4c0-0.8,0-1.5-0.1-2.3c0-0.8-0.1-1.6-0.2-2.3 c-0.1-1.6-0.2-3.1-0.2-4.7c-0.1-3.1-0.2-6.2-0.3-9.3c-0.1-1.3-0.1-2.7-0.3-4c-0.2-1.1-0.4-2.3-0.8-3.4c-0.3-1.1-0.7-2.1-1.3-3.1 c-0.3-0.5-0.7-0.9-1.2-1.1c-0.2-0.1-0.5-0.2-0.7-0.3c-0.3,0-0.5-0.1-0.8-0.1c-0.6,0-1.1,0.2-1.5,0.5c-0.2,0.2-0.4,0.3-0.6,0.6 c-0.2,0.2-0.3,0.4-0.5,0.7c-0.5,0.9-0.9,2-1.3,3c-0.5,1.5-0.9,3-1.3,4.6c-0.1,0.4-0.2,0.7-0.2,1.1c-0.1,0.4-0.1,0.7-0.2,1.1 c-0.1,0.5-0.2,1-0.2,1.5c0,0.3-0.1,0.6-0.1,0.9c0,0.5-0.1,0.9-0.1,1.4c0,0.4,0,0.7,0,1.1c0,0.4,0,0.9,0,1.3c0,0.3,0,0.7,0,1 C102.3,127.5,102.3,128.3,102.3,129.1z M105.3,121.4c-0.3,0-0.5,0-0.8,0c-0.1,0-0.2,0-0.3,0c0,0,0,0,0,0c0,0,0,0,0,0c0,0,0,0,0,0 c0.1-0.6,0.2-1.3,0.3-1.9c0,0.1,0,0.1,0,0.2c0.1-0.4,0.1-0.7,0.2-1.1c0-0.2,0.1-0.5,0.1-0.7c0,0,0,0,0,0c0.2,0.4,0.5,0.9,0.7,1.3 c0.1,0.2,0.3,0.4,0.4,0.7c0.3,0.4,0.6,0.9,0.9,1.3c0.1,0.1,0.2,0.2,0.2,0.3c0,0-0.1,0-0.1,0C106.5,121.4,105.9,121.4,105.3,121.4z M111.6,121.6C111.6,121.6,111.6,121.5,111.6,121.6c-0.3,0-0.5-0.1-0.6-0.1c-0.2,0-0.5-0.1-0.7-0.1c-0.5-0.1-0.9,0-1.4,0 c0,0,0,0,0,0c0.1-0.1,0.2-0.2,0.3-0.3c0.2-0.2,0.3-0.4,0.4-0.6c0.1-0.2,0.2-0.4,0.4-0.5c0.2-0.3,0.4-0.6,0.6-1 c0.2-0.3,0.4-0.6,0.5-0.9c0.1-0.2,0.3-0.5,0.4-0.7c0.1,1,0.1,2,0.1,3c0,0.5,0,0.9,0,1.4C111.7,121.6,111.7,121.6,111.6,121.6z M109.1,109.9c0.1,0,0.2,0.1,0.3,0.1c0.1,0.1,0.2,0.2,0.3,0.4c0.3,0.4,0.5,0.9,0.7,1.4c0.5,1.5,0.9,3,1.1,4.5c-0.1,0-0.1,0-0.2,0 c-0.1,0.1-0.2,0.1-0.2,0.2c-0.1,0.4-0.3,0.7-0.4,1.1c-0.1,0.2-0.2,0.5-0.3,0.7c-0.1,0.2-0.2,0.4-0.3,0.7c-0.1,0.1-0.1,0.2-0.2,0.3 c0,0.1-0.1,0.2-0.2,0.3c-0.2,0.3-0.4,0.6-0.7,0.9c-0.1,0.1-0.1,0.1-0.2,0.2c0-0.1,0-0.3,0-0.4c0-0.5,0-0.9,0-1.4c0-0.5,0-1.1,0-1.6 c0-0.5,0-0.9-0.1-1.4c-0.1-1-0.1-2.1-0.2-3.1c-0.1-0.6-0.1-1.1-0.1-1.7c0-0.2,0-0.5,0-0.7c0-0.2,0-0.5,0-0.7c0.1,0,0.2,0,0.3,0 C108.8,109.8,108.9,109.8,109.1,109.9z M106,113.5c0.1-0.2,0.2-0.5,0.3-0.7c0-0.1,0.1-0.3,0.1-0.4c0.1-0.3,0.3-0.7,0.4-1 c0.2-0.4,0.4-0.8,0.7-1.2c0.1-0.1,0.2-0.2,0.3-0.3c0,0,0,0,0.1,0c0,0.1,0,0.1,0,0.2c0,0.2,0,0.5,0,0.7c0,0.5,0,1,0,1.5 c0,1,0.1,2.1,0.1,3.1c0,1.1,0,2.1,0,3.2c0,0.5-0.1,1-0.1,1.6c0,0.1,0,0.3,0,0.4c-0.2-0.2-0.3-0.4-0.4-0.5c-0.3-0.4-0.6-0.8-0.8-1.3 c-0.2-0.3-0.4-0.6-0.6-1c-0.2-0.3-0.4-0.7-0.5-1c-0.1-0.2-0.1-0.3-0.2-0.5c0,0,0-0.1,0-0.1c0.1-0.3,0.1-0.6,0.2-0.8 C105.6,114.8,105.8,114.1,106,113.5z"></path> <path d="M103.6,141.1C103.6,141.2,103.6,141.2,103.6,141.1C103.6,141.2,103.6,141.2,103.6,141.1 C103.6,141.2,103.6,141.1,103.6,141.1z"></path> <path d="M109.9,202.2c0,0.9,0,1.8,0,2.7c0,0.8,0,1.7,0.1,2.5c0.1,1.7,0.2,3.4,0.3,5.1c0,0.8,0.1,1.6,0.2,2.4 c0.1,0.4,0.2,0.8,0.2,1.1c0,0.2,0.1,0.4,0.1,0.6c0,0.1,0,0.2,0,0.2c0,0.2,0.1,0.3,0.2,0.4c0.1,0.1,0.3,0.2,0.5,0.2 c0.2,0,0.5-0.1,0.6-0.3c0.1-0.2,0.1-0.3,0.1-0.5c0-0.1,0-0.1,0-0.2c0-0.2,0-0.3,0-0.5c0-0.3,0-0.7,0-1c0-0.6,0-1.3,0.1-1.9 c0-0.7,0-1.4,0-2.1c0-0.8,0-1.5,0-2.3c0-0.9-0.1-1.7-0.1-2.6c0-0.8,0-1.7,0-2.5c0-0.9,0-1.8-0.1-2.7c0-0.8-0.1-1.6-0.1-2.5 c0-1.8,0-3.7,0-5.5c0-1.8,0.1-3.6,0.1-5.5c0-0.9,0-1.8,0-2.7c0-0.9,0.1-1.8,0.1-2.7c0-0.9,0.1-1.7,0.2-2.6c0.1-0.9,0.2-1.7,0.3-2.6 c0.1-0.7,0.2-1.4,0.4-2.1c0.1-0.4,0.2-0.8,0.3-1.3c0.1-0.4,0.2-0.7,0.3-1.1c0.2-0.8,0.4-1.5,0.7-2.3c0.1-0.3,0.2-0.6,0.3-1 c0.1-0.3,0.2-0.7,0.4-1c0.2-0.5,0.4-1,0.6-1.4c0,0,0,0,0,0c0,0,0,0,0,0c0.2-0.4,0.4-0.8,0.6-1.2c0.3-0.5,0.5-1,0.8-1.4 c0.2-0.4,0.5-0.8,0.7-1.2c0.2-0.4,0.5-0.7,0.7-1c0.6-0.7,1.3-1.3,2-1.9c0.4-0.3,0.7-0.5,1.1-0.8c0.4-0.2,0.8-0.4,1.2-0.6 c0.7-0.3,1.4-0.4,2.2-0.5c0.7,0.1,1.5,0.2,2.2,0.5c0.4,0.2,0.8,0.3,1.2,0.6c0.4,0.2,0.8,0.5,1.1,0.8c0.7,0.6,1.4,1.2,2,1.9 c0.3,0.3,0.5,0.7,0.7,1c0.2,0.4,0.5,0.8,0.7,1.2c0.3,0.5,0.5,0.9,0.8,1.4c0.2,0.4,0.4,0.8,0.6,1.2c0,0,0,0,0,0 c0.2,0.5,0.4,1,0.6,1.4c0.1,0.3,0.2,0.7,0.4,1c0.1,0.3,0.2,0.6,0.3,1c0.2,0.8,0.5,1.5,0.7,2.3c0.1,0.4,0.2,0.7,0.3,1.1 c0.1,0.4,0.2,0.8,0.3,1.3c0.1,0.7,0.3,1.4,0.4,2.1c0.1,0.9,0.2,1.7,0.3,2.6c0.1,0.9,0.2,1.7,0.2,2.6c0,0.9,0.1,1.8,0.1,2.7 c0,0.9,0,1.8,0,2.7c0,1.8,0.1,3.6,0.1,5.5c0,1.8,0,3.7,0,5.5c0,0.8,0,1.6-0.1,2.5c0,0.9,0,1.8-0.1,2.7c0,0.8,0,1.7,0,2.5 c0,0.9-0.1,1.7-0.1,2.6c0,0.8,0,1.5,0,2.3c0,0.7,0,1.4,0,2.1c0,0.6,0,1.3,0.1,1.9c0,0.3,0,0.7,0,1c0,0.2,0,0.3,0,0.5 c0,0.1,0,0.1,0,0.2c0,0.2,0,0.3,0.1,0.5c0.1,0.2,0.3,0.3,0.6,0.3c0.2,0,0.3-0.1,0.5-0.2c0.1-0.1,0.2-0.3,0.2-0.4c0-0.1,0-0.2,0-0.2 c0-0.2,0.1-0.4,0.1-0.6c0.1-0.4,0.2-0.8,0.2-1.1c0.1-0.8,0.2-1.6,0.2-2.4c0.1-1.7,0.2-3.4,0.3-5.1c0.1-0.8,0.1-1.7,0.1-2.5 c0-0.9,0-1.8,0-2.7c0-0.9,0.1-1.7,0.1-2.6c0-0.9,0.1-1.8,0.1-2.7c0-1.7,0-3.4,0-5.2c-0.1-1.9-0.1-3.8-0.2-5.6 c0-0.9-0.1-1.7-0.1-2.6c0-0.9-0.2-1.9-0.2-2.8c0-0.4-0.1-0.8-0.1-1.2c-0.1-0.5-0.1-0.9-0.2-1.4c-0.1-0.9-0.3-1.8-0.5-2.7 c-0.2-0.9-0.4-1.7-0.7-2.6c-0.1-0.5-0.3-0.9-0.4-1.4c-0.2-0.5-0.4-1-0.5-1.5c-0.1-0.3-0.3-0.7-0.4-1c-0.2-0.5-0.3-0.9-0.6-1.4 c-0.2-0.5-0.4-1-0.7-1.4c-0.2-0.4-0.4-0.8-0.6-1.1c-0.3-0.6-0.6-1.1-1-1.6c-0.2-0.3-0.4-0.6-0.5-0.9c-0.2-0.3-0.4-0.6-0.6-0.9 c-0.3-0.4-0.8-0.8-1.2-1.2c-0.7-0.6-1.5-1.2-2.3-1.7c-0.8-0.5-1.7-0.9-2.6-1.2c-0.1,0-0.3-0.1-0.4-0.1c-0.1-0.2-0.2-0.3-0.4-0.3 c-0.3,0-0.7,0-1,0.1c-0.3,0-0.7-0.1-1-0.1c-0.2,0-0.4,0.2-0.4,0.3c-0.1,0-0.3,0.1-0.4,0.1c-0.9,0.3-1.8,0.7-2.6,1.2 c-0.8,0.5-1.6,1.1-2.3,1.7c-0.4,0.4-0.8,0.8-1.2,1.2c-0.2,0.3-0.4,0.6-0.6,0.9c-0.2,0.3-0.4,0.6-0.5,0.9c-0.3,0.5-0.7,1.1-1,1.6 c-0.2,0.4-0.4,0.7-0.6,1.1c-0.2,0.5-0.4,1-0.7,1.4c-0.2,0.5-0.4,0.9-0.6,1.4c-0.1,0.3-0.3,0.7-0.4,1c-0.2,0.5-0.4,1-0.5,1.5 c-0.2,0.5-0.3,0.9-0.4,1.4c-0.3,0.8-0.4,1.7-0.7,2.6c-0.2,0.9-0.3,1.8-0.5,2.7c-0.1,0.5-0.1,0.9-0.2,1.4c0,0.4-0.1,0.8-0.1,1.2 c-0.1,0.9-0.2,1.9-0.2,2.8c0,0.9-0.1,1.7-0.1,2.6c0,1.9-0.1,3.8-0.2,5.6c0,1.7,0,3.4,0,5.2c0,0.9,0,1.8,0.1,2.7 C109.9,200.5,109.9,201.4,109.9,202.2z M134.4,166.6C134.4,166.6,134.4,166.6,134.4,166.6C134.4,166.6,134.4,166.6,134.4,166.6 C134.4,166.6,134.4,166.6,134.4,166.6z M115.8,166.6C115.8,166.6,115.8,166.6,115.8,166.6C115.8,166.6,115.8,166.6,115.8,166.6 C115.8,166.6,115.8,166.6,115.8,166.6z"></path> <path d="M116.9,125.9c0,1.7,0.1,3.3,0.2,5c0.1,1.7,0.2,3.4,0.3,5.2c0,0.9,0.1,1.8,0.2,2.7c0,0.4,0.1,0.8,0.1,1.2 c0,0.2,0,0.4,0.1,0.6c0,0.2,0,0.4,0.1,0.5c0,0,0,0,0,0c0,0,0,0.1,0,0.1c0,0,0,0.1,0.1,0.1c0.1,0.1,0.1,0.1,0.2,0.1 c0.1,0,0.2,0,0.3,0.1c0.2,0,0.3,0.1,0.5,0.1c0.3,0,0.7,0.1,1,0.1c0,0,0,0,0,0c0.6,0,1.3,0,1.9-0.1c0.5,0,1-0.1,1.5-0.1c0,0,0,0,0,0 c0.1,0,0.3,0,0.4,0c0.4,0,0.8,0,1.2,0c0.4,0,0.8,0,1.2,0c0.1,0,0.3,0,0.4,0c0,0,0,0,0,0c0.5,0,1,0.1,1.5,0.1c0.6,0,1.3,0.1,1.9,0.1 c0,0,0,0,0,0c0.3,0,0.7,0,1-0.1c0.2,0,0.3,0,0.5-0.1c0.1,0,0.2,0,0.3-0.1c0.1,0,0.1-0.1,0.2-0.1c0,0,0.1-0.1,0.1-0.1 c0,0,0-0.1,0-0.1c0,0,0,0,0,0c0.1-0.2,0.1-0.4,0.1-0.5c0-0.2,0-0.4,0.1-0.6c0-0.4,0.1-0.8,0.1-1.2c0.1-0.9,0.2-1.8,0.2-2.7 c0.1-1.7,0.2-3.4,0.3-5.2c0.1-1.7,0.2-3.3,0.2-5c0-1.8,0-3.5,0-5.3c0-1.7,0-3.3,0-5c0-0.9,0-1.7,0-2.6c0-0.8,0-1.6,0-2.5 c0-1.7,0-3.4-0.1-5.1c0-0.8-0.1-1.6-0.2-2.4c-0.1-0.9-0.2-1.9-0.4-2.8c-0.2-0.8-0.4-1.6-0.6-2.4c-0.3-0.8-0.6-1.7-1-2.5 c-0.7-1.5-1.8-3-3.3-3.7c-0.2-0.1-0.3-0.1-0.5-0.2c-0.2-0.1-0.4-0.1-0.6-0.2c-0.4-0.1-0.8-0.1-1.2-0.1c-0.1,0-0.1,0.1-0.2,0.1 c-0.1,0-0.1-0.1-0.2-0.1c-0.4,0-0.8,0-1.2,0.1c-0.2,0-0.4,0.1-0.6,0.2c-0.2,0.1-0.3,0.1-0.5,0.2c-1.6,0.7-2.6,2.2-3.3,3.7 c-0.4,0.8-0.7,1.6-1,2.5c-0.2,0.8-0.4,1.6-0.6,2.4c-0.2,0.9-0.3,1.8-0.4,2.8c-0.1,0.8-0.1,1.6-0.2,2.4c-0.1,1.7-0.1,3.4-0.1,5.1 c0,0.8,0,1.6,0,2.5c0,0.9,0,1.7,0,2.6c0,1.7,0,3.3,0,5C116.9,122.3,116.9,124.1,116.9,125.9z M119.9,104.8c0.1,0,0.2,0,0.4,0 c0.3,0,0.7,0,1-0.1c0.5,0,0.9-0.1,1.4-0.1c0.1,0,0.3,0,0.4,0c0.1,0,0.2,0,0.3,0c-0.1,0-0.1,0-0.2,0c0.4,0,0.9,0,1.3-0.1 c0.2,0,0.4,0,0.6,0c0.2,0,0.4,0,0.6,0c0.4,0,0.9,0.1,1.3,0.1c-0.1,0-0.1,0-0.2,0c0.1,0,0.2,0,0.3,0c0.1,0,0.3,0,0.4,0 c0.5,0,0.9,0.1,1.4,0.1c0.3,0,0.7,0.1,1,0.1c0.1,0,0.2,0,0.4,0c0.1,0,0.2,0,0.4,0c0.1,1.6,0.2,3.1,0.2,4.7c0,1.7,0.1,3.4,0.1,5.1 c0,0.8,0,1.6,0,2.4c0,0.9,0,1.8,0.1,2.7c0.1,1.7,0.1,3.3,0.1,5c0,1.7,0,3.5,0,5.2c0,1.7,0,3.5,0,5.2c0,0.8,0,1.6,0.1,2.5 c0,0.6,0,1.2,0.1,1.8c-0.5-0.1-1-0.1-1.6-0.2c-0.3,0-0.5-0.1-0.8-0.1c-0.2,0-0.5-0.1-0.7-0.1c-0.5-0.1-1.1-0.1-1.6-0.1 c-0.5,0-1,0-1.5,0.1c0,0-0.1,0-0.1,0c0,0-0.1,0-0.1,0c-0.5,0-1-0.1-1.5-0.1c-0.5,0-1.1,0-1.6,0.1c-0.2,0-0.5,0.1-0.7,0.1 c-0.3,0-0.5,0.1-0.8,0.1c-0.5,0.1-1,0.2-1.6,0.2c0-0.6,0.1-1.2,0.1-1.8c0-0.8,0-1.6,0.1-2.5c0-1.7,0-3.5,0-5.2c0-1.7,0-3.5,0-5.2 c0-1.7,0.1-3.3,0.1-5c0-0.9,0.1-1.8,0.1-2.7c0-0.8,0-1.6,0-2.4c0-1.7,0.1-3.4,0.1-5.1c0-1.6,0.1-3.1,0.2-4.7 C119.7,104.8,119.8,104.8,119.9,104.8z M130.6,140.7c-0.5,0-1-0.1-1.4-0.2c-0.5-0.1-1.1-0.1-1.6-0.1c-0.3,0-0.7,0-1,0 c-0.3,0-0.6,0-0.9,0c-0.2,0-0.3,0-0.5,0c-0.2,0-0.3,0-0.5,0c-0.3,0-0.6,0-0.9,0c-0.3,0-0.7,0-1,0c-0.5,0-1.1,0.1-1.6,0.1 c-0.5,0.1-1,0.1-1.4,0.2c-0.3,0-0.5,0-0.8,0c0,0-0.1,0-0.1,0c0,0,0-0.1,0-0.1c0-0.2,0-0.4,0.1-0.5c0-0.1,0-0.2,0-0.2 c0.1,0,0.1,0,0.2,0c0.1,0,0.2,0,0.3,0c0.2,0,0.3,0,0.5,0c0.5,0,1,0,1.5-0.1c0,0,0.1,0,0.1,0c0,0,0,0.1,0,0.1c0,0.1,0.1,0.2,0.2,0.3 c0.1,0.1,0.2,0.1,0.3,0.1c0,0,0,0,0,0c0.2,0,0.4,0,0.6-0.1c0.2,0,0.4-0.1,0.7-0.1c0.4-0.1,0.9-0.2,1.3-0.3c0.2,0,0.4,0,0.6-0.1 c0.2,0,0.4,0,0.6,0.1c0.4,0.1,0.9,0.2,1.3,0.3c0.2,0,0.4,0.1,0.7,0.1c0.2,0,0.4,0.1,0.6,0.1c0,0,0,0,0,0c0.1,0,0.2,0,0.3-0.1 c0.1-0.1,0.2-0.2,0.2-0.3c0,0,0-0.1,0-0.1c0,0,0.1,0,0.1,0c0.5,0,1,0,1.5,0.1c0.2,0,0.3,0,0.5,0c0.1,0,0.2,0,0.3,0 c0.1,0,0.1,0,0.2,0c0,0.1,0,0.2,0,0.2c0,0.2,0,0.4,0.1,0.5c0,0,0,0.1,0,0.1c0,0-0.1,0-0.1,0C131.1,140.7,130.8,140.7,130.6,140.7z M130.1,99.6c0.1,0.8,0.3,1.6,0.4,2.4c0.1,0.6,0.1,1.2,0.1,1.9c-0.1,0-0.3,0-0.4,0c0,0,0.1,0,0.1,0c-0.1,0-0.1,0-0.2,0 c0,0,0.1,0,0.1,0c-0.1,0-0.2,0-0.3,0c0,0,0,0,0,0c0,0,0,0,0,0c0,0,0,0-0.1,0c0,0,0,0,0,0c0,0,0,0,0,0c0,0,0,0,0,0 c-0.5,0-1-0.1-1.5-0.2c-0.4-0.1-0.8-0.1-1.2-0.2c0,0-0.1,0-0.1,0c-0.1,0-0.2,0-0.3,0c-0.1,0-0.3,0-0.4,0c0,0,0,0,0-0.1 c0.1-0.3,0.1-0.5,0.2-0.8c0.1-0.5,0.3-1,0.4-1.5c0.2-0.5,0.3-1,0.5-1.5c0.2-0.5,0.3-0.9,0.4-1.4c0.2-0.5,0.3-1,0.5-1.5 c0.1-0.4,0.3-0.7,0.4-1.1c0.3,0.6,0.5,1.2,0.7,1.8C129.8,98.1,130,98.8,130.1,99.6z M123,93.3c0.2-0.1,0.5-0.3,0.7-0.4 c0.3-0.1,0.5-0.3,0.8-0.4c0.2-0.1,0.3-0.1,0.5-0.1c0.1,0,0.1-0.1,0.1-0.1c0,0,0.1,0.1,0.1,0.1c0.2,0,0.3,0.1,0.5,0.1 c0.3,0.1,0.5,0.2,0.8,0.4c0.2,0.1,0.5,0.3,0.7,0.4c0.3,0.2,0.5,0.4,0.7,0.7c0.1,0.1,0.2,0.3,0.3,0.4c0,0.1-0.1,0.1-0.1,0.1 c0,0.1-0.1,0.2-0.1,0.2c-0.2,0.4-0.3,0.9-0.5,1.3c-0.2,0.5-0.3,1-0.4,1.4c-0.1,0.5-0.3,1-0.4,1.5c-0.1,0.5-0.3,1-0.4,1.5 c-0.2,0.5-0.3,1.1-0.4,1.7c-0.1,0.3-0.1,0.5-0.2,0.8c0,0.1,0,0.3-0.1,0.4c-0.2,0-0.3,0-0.5,0c0,0-0.1,0-0.1,0c0,0-0.1,0-0.1,0 c-0.2,0-0.3,0-0.5,0c0-0.1,0-0.3-0.1-0.4c0-0.3-0.1-0.5-0.2-0.8c-0.1-0.6-0.3-1.1-0.4-1.7c-0.1-0.5-0.3-1-0.4-1.5 c-0.1-0.5-0.3-1-0.4-1.5c-0.1-0.5-0.3-1-0.4-1.4c-0.2-0.5-0.3-0.9-0.5-1.4c0,0,0,0.1,0,0.1c0-0.1-0.1-0.2-0.1-0.2 c0-0.1-0.1-0.1-0.1-0.1c0.1-0.1,0.2-0.3,0.3-0.4C122.5,93.8,122.7,93.5,123,93.3z M120.1,99.6c0.1-0.8,0.3-1.5,0.6-2.3 c0.2-0.6,0.4-1.2,0.7-1.8c0.1,0.4,0.3,0.7,0.4,1.1c0.2,0.5,0.3,1,0.5,1.5c0.1,0.5,0.3,0.9,0.4,1.4c0.2,0.5,0.3,1,0.5,1.5 c0.2,0.5,0.3,1,0.4,1.5c0.1,0.3,0.1,0.5,0.2,0.8c0,0,0,0,0,0.1c-0.1,0-0.3,0-0.4,0c-0.1,0-0.2,0-0.3,0c0,0-0.1,0-0.1,0 c-0.4,0-0.8,0.1-1.2,0.2c-0.5,0.1-1,0.2-1.5,0.2c0,0,0,0,0,0c0,0,0,0,0,0c0,0,0,0,0,0c0,0,0,0-0.1,0c0,0,0,0,0,0 c-0.1,0-0.2,0-0.3,0c0,0,0.1,0,0.1,0c-0.1,0-0.1,0-0.2,0c0,0,0.1,0,0.1,0c-0.1,0-0.3,0-0.4,0c0-0.6,0.1-1.2,0.1-1.9 C119.8,101.2,120,100.4,120.1,99.6z"></path> <path d="M120.2,103.8C120.2,103.8,120.2,103.8,120.2,103.8C120.2,103.8,120.2,103.8,120.2,103.8 C120.2,103.8,120.2,103.8,120.2,103.8z"></path> <path d="M211.4,202.9c0,0.1,0.1,0.3,0.1,0.4c0,0.1,0,0.2,0.1,0.3c0-0.1,0-0.1,0-0.2c0,0.3,0.1,0.5,0.1,0.8c0,0.2,0.1,0.4,0.2,0.6 c0.1,0.3,0.4,0.5,0.6,0.6c0.2,0.1,0.4,0.2,0.7,0.3c0.2,0.1,0.3,0.1,0.5,0.1c0.2,0.1,0.5,0.1,0.7,0.2c1.1,0.3,2.3,0.3,3.5,0.3 c0.4,0,0.8,0,1.2,0c0,0,0.1,0,0.1,0c0.4,0,0.8,0,1.3-0.1c0.4,0,0.8-0.1,1.2-0.1c0.3,0,0.7,0,1-0.1c0.3,0,0.6-0.3,0.6-0.6 c0-0.1,0-0.2-0.1-0.3c0.2-0.1,0.4-0.2,0.4-0.4c0.1-0.3,0.1-0.6,0-0.9c0-0.1-0.1-0.2-0.1-0.3c0-0.2,0-0.4-0.1-0.7 c0-0.6-0.1-1.1-0.1-1.7c-0.1-1-0.1-2-0.1-3c0-0.9,0-1.8,0-2.7c0-1,0-2-0.1-2.9c-0.1-2-0.2-4-0.3-6c0-1-0.1-1.9-0.2-2.9 c0-0.6-0.1-1.2-0.1-1.8c0-0.5-0.1-1-0.2-1.5c-0.2-2-0.6-4-1-6c-0.2-1-0.4-1.9-0.7-2.9c0-0.2-0.1-0.3-0.2-0.5 c-0.1-0.2-0.1-0.5-0.2-0.7c-0.1-0.3-0.2-0.6-0.3-0.8c-0.1-0.3-0.2-0.5-0.3-0.8c-0.1-0.2-0.2-0.4-0.3-0.6c-0.1-0.1-0.1-0.2-0.2-0.3 c-0.2-0.3-0.4-0.6-0.6-0.8c-0.2-0.2-0.5-0.4-0.7-0.6c-0.3-0.2-0.6-0.3-0.9-0.3c-0.6-0.2-1.3,0-1.8,0.4c-0.5,0.3-0.9,0.8-1.2,1.4 c-0.4,0.6-0.7,1.2-0.9,1.9c-0.4,1.1-0.6,2.2-0.7,3.3c0,0.6-0.1,1.1-0.1,1.7c0,0.5-0.1,1-0.1,1.6c-0.1,1-0.1,2-0.1,3.1 c-0.1,3.8-0.1,7.6-0.4,11.4c-0.1,2-0.2,4-0.4,6c-0.1,1-0.1,2.1-0.1,3.1c0,0.5,0,1,0.1,1.5C211.3,201.9,211.3,202.4,211.4,202.9z M221,205c-0.3,0-0.5,0.1-0.8,0.1c-0.3,0-0.6,0-0.8,0c-0.6,0-1.2-0.1-1.8-0.1c-0.6-0.1-1.2-0.1-1.7-0.1c-0.5-0.1-0.9-0.2-1.4-0.3 c0.1,0,0.2,0,0.3,0c0.7,0,1.4,0.1,2.1,0.1c0.1,0,0.1,0,0.2,0c1.7,0,3.3-0.1,5-0.1c0,0.1,0.1,0.2,0.1,0.3c0,0.1,0.1,0.1,0.1,0.2 C221.9,204.9,221.5,204.9,221,205z M221.5,192.7c0.1,1,0.1,2,0.2,2.9c0.1,0.9,0,1.8,0.1,2.7c0,1,0.1,2,0.2,3c0,0.5,0.1,1,0.1,1.4 c-1.7,0.1-3.4,0.2-5,0.3c-0.8,0-1.5,0-2.3,0c-0.4,0-0.8,0-1.2,0c0,0,0,0-0.1,0c0-0.1,0-0.1,0-0.2c0-0.5,0-0.9,0-1.4c0-1,0-2,0-2.9 c0-2,0.1-4,0.2-6c0.1-2,0.1-3.9,0-5.9c0-2,0-4,0-6.1c0-0.3,0-0.7,0-1c0.1,0.3,0.3,0.5,0.5,0.5c0,0,0,0,0,0c0.6,0,1.1-0.1,1.7-0.2 c0.5-0.1,1-0.1,1.5-0.2c0.5-0.1,1.1-0.1,1.6-0.1c0.2,0,0.4,0,0.6-0.1c0.2,0,0.4,0,0.5,0c0.1,0,0.1,0,0.2,0c0,0.3,0.1,0.7,0.1,1 c0.1,0.5,0.1,1,0.2,1.5c0,0.6,0.1,1.2,0.1,1.8c0.1,1,0.1,1.9,0.2,2.9c0.1,0.9,0.2,1.9,0.2,2.8C221.4,190.5,221.4,191.6,221.5,192.7 z M214.2,174.1c0.4,1,0.8,1.9,1.3,2.9c0.1,0.2,0.2,0.4,0.3,0.7c0,0,0-0.1,0-0.1c0.2,0.4,0.3,0.7,0.5,1.1c-0.1,0-0.1,0-0.2,0 c-0.6,0-1.1,0-1.7,0.1c-0.2,0-0.3,0.1-0.4,0.2c-0.1,0.1-0.1,0.2-0.1,0.3c0-0.8,0-1.7,0-2.5c0-1.2,0.1-2.4,0.1-3.6 C214,173.6,214.1,173.9,214.2,174.1z M220.2,177.8c0,0.2,0.1,0.5,0.1,0.7c-0.2,0-0.5,0-0.7,0.1c-0.2,0-0.4,0-0.6,0 c-0.5,0-1,0-1.4,0.1c0,0,0.1,0,0.1-0.1c0-0.1,0.1-0.1,0.1-0.2c0,0,0,0,0,0.1c0.3-0.8,0.7-1.6,1-2.4c0.2-0.4,0.3-0.7,0.5-1.1 c0.1-0.2,0.1-0.3,0.2-0.5c0.1,0.4,0.2,0.9,0.3,1.3C219.9,176.4,220,177.1,220.2,177.8z M218.7,174.9 C218.7,174.9,218.7,174.9,218.7,174.9C218.7,174.9,218.7,174.9,218.7,174.9C218.7,174.9,218.7,174.9,218.7,174.9z M217.5,168 c0.2,0.4,0.4,0.7,0.6,1.1c0.3,0.7,0.5,1.3,0.7,2c0.2,0.7,0.4,1.5,0.5,2.2c0,0,0,0.1,0,0.1c0,0,0,0,0,0.1c-0.2,0.5-0.4,1-0.6,1.5 c0,0,0,0,0,0c0,0,0,0,0,0c0,0,0,0,0,0c0,0,0,0,0,0c-0.1,0.3-0.2,0.5-0.3,0.8c-0.1,0.2-0.1,0.3-0.2,0.5c-0.1,0.1-0.1,0.3-0.2,0.4 c-0.2,0.4-0.4,0.8-0.5,1.2c0-0.1,0-0.3,0-0.4c0-0.5,0-1.1,0-1.6c0-1.1-0.1-2.1-0.1-3.2c0-0.9-0.1-1.7-0.1-2.6 c0-0.4-0.1-0.9-0.1-1.3c0-0.4-0.1-0.8-0.1-1.2c0.1,0,0.1,0.1,0.2,0.1C217.3,167.8,217.4,167.9,217.5,168z M214.5,169.8 c0.2-0.6,0.5-1.1,0.8-1.6c0.1-0.2,0.3-0.4,0.5-0.5c0.1,0,0.1-0.1,0.2-0.1c0,0.5,0.1,1,0.2,1.5c0.1,0.5,0.1,1.1,0.2,1.6 c0.1,1.1,0.2,2.1,0.2,3.2c0,0.8,0.1,1.6,0.2,2.5c0,0.4,0.1,0.9,0.1,1.3c0,0.1,0,0.2,0,0.3c-0.2-0.4-0.4-0.8-0.6-1.2 c-0.3-0.6-0.6-1.2-0.8-1.8c-0.3-0.6-0.5-1.3-0.8-2c-0.2-0.5-0.4-1-0.6-1.5C214.2,170.9,214.3,170.3,214.5,169.8z"></path> <path d="M176,203c0,0.2,0,0.4,0.1,0.5c0.1,0.4,0.1,0.7,0.3,1c0.1,0.3,0.4,0.4,0.6,0.6c0.2,0.1,0.5,0.2,0.7,0.3 c0.2,0.1,0.4,0.1,0.6,0.1c0.8,0.2,1.5,0.4,2.3,0.5c0.7,0.1,1.5,0.2,2.2,0.3c0.7,0.1,1.5,0.3,2.2,0.4c0.5,0.1,1.1,0.1,1.6,0.1 c0.1,0,0.2,0,0.3,0c0.1,0,0.3,0,0.4,0c0.4,0,0.8-0.4,0.8-0.8c0-0.1,0-0.2,0-0.3c0.1-0.1,0.1-0.1,0.2-0.2c0-0.1,0-0.3,0-0.4 c0-0.1,0-0.2,0-0.2c0-0.3,0-0.6-0.1-0.9c0-0.4,0-0.8,0-1.2c0-0.8,0-1.6,0-2.4c0-0.8,0-1.7,0.1-2.5c0-0.9,0-1.7,0-2.6 c0-0.8,0-1.6-0.1-2.4c0-0.8-0.1-1.6-0.1-2.3c-0.1-1.6-0.2-3.3-0.3-4.9c-0.2-3.2-0.4-6.4-0.8-9.6c-0.2-1.7-0.4-3.4-0.7-5.1 c-0.1-0.8-0.3-1.6-0.5-2.4c-0.1-0.4-0.2-0.8-0.3-1.2c-0.1-0.2-0.1-0.5-0.2-0.7c-0.1-0.5-0.3-1-0.6-1.5c-0.2-0.5-0.5-0.9-0.9-1.3 c-0.2-0.2-0.4-0.3-0.7-0.5c-0.3-0.2-0.6-0.2-1-0.3c-0.3,0-0.5,0-0.8,0.1c-0.3,0.1-0.5,0.2-0.7,0.3c-0.2,0.1-0.4,0.3-0.6,0.4 c-0.3,0.2-0.5,0.4-0.7,0.7c-0.4,0.4-0.7,0.9-1,1.4c-0.3,0.5-0.6,1.1-0.8,1.6c-0.4,1.1-0.6,2.3-0.8,3.4c-0.1,0.4-0.1,0.9-0.2,1.3 c0,0.4-0.1,0.8-0.1,1.3c-0.1,0.8-0.1,1.7-0.2,2.5c0,0.9-0.1,1.8-0.1,2.7c0,0.9-0.1,1.7-0.1,2.6c-0.1,1.6-0.1,3.2-0.1,4.9 c0,3.2-0.1,6.3-0.1,9.5c0,1.7,0,3.4,0.1,5.1C176,201.4,176,202.2,176,203z M185.8,205.2c-0.6-0.1-1.2-0.2-1.9-0.4 c-0.6-0.1-1.3-0.2-1.9-0.3c-0.4-0.1-0.9-0.2-1.3-0.3c0.1,0,0.1,0,0.2,0c1.2-0.1,2.3-0.1,3.5-0.1c0.3,0,0.7,0,1,0 c0.4,0,0.7,0,1.1-0.1c0.2,0,0.4-0.1,0.6-0.1c0,0,0,0,0,0c0,0.3,0,0.6,0.1,0.9c0,0.1,0,0.2,0,0.3c0,0,0,0.1,0,0.1 C186.8,205.3,186.3,205.2,185.8,205.2z M186.6,189.8c0.1,0.8,0.2,1.7,0.2,2.5c0.1,0.9,0.1,1.8,0.2,2.7c0,0.4,0,0.7,0,1.1 c0,0.5,0,1,0,1.6c0,0.8,0,1.7,0,2.5c0,0.3,0,0.6,0,0.9c0,0.4,0,0.8,0,1.3c0,0.2,0,0.4,0,0.5c0,0-0.1,0-0.1,0.1c0,0-0.1,0-0.1,0 c-0.9,0.1-1.8,0.1-2.7,0.1c-0.7,0-1.4,0-2.1,0c-1.2,0-2.4,0-3.6,0c-0.2,0-0.4,0-0.6,0c0-0.1,0-0.2,0-0.3c0-0.4,0-0.7,0-1.1 c0-0.9,0-1.7,0-2.6c0-1.6-0.1-3.2-0.1-4.8c-0.1-3.3-0.1-6.7-0.1-10c0-3.3,0-6.5,0.2-9.8c0-0.4,0-0.7,0.1-1.1c0,0,0,0,0-0.1 c0,0,0,0,0,0c0,0,0,0,0-0.1c0-0.3,0.1-0.7,0.1-1c0.3,0.7,0.5,1.3,0.8,2c0,0,0,0,0,0c0,0,0,0,0,0c0,0,0,0,0,0c0,0,0,0,0,0 c0,0,0,0,0,0c0,0,0,0,0,0c0,0,0,0,0,0c0.1,0.1,0.1,0.3,0.2,0.4c0,0,0,0,0,0c0,0,0,0,0,0c0,0,0,0,0,0c0,0,0,0,0,0c0,0,0,0,0,0.1 c0.1,0.1,0.1,0.3,0.2,0.4c0,0,0,0,0,0c0.1,0.2,0.1,0.3,0.2,0.5c0,0,0,0,0,0c0.2,0.5,0.5,1,0.7,1.5c0.3,0.6,0.6,1.2,0.9,1.7 c0,0,0,0,0,0c-0.4,0-0.8,0-1.2,0c-0.1,0-0.2,0-0.3,0c-0.1,0-0.3,0-0.4,0.1c-0.3,0.1-0.5,0.3-0.5,0.6c0,0.1,0,0.3,0,0.4 c0.1,0.2,0.2,0.4,0.4,0.5c0.2,0.1,0.4,0.1,0.6,0.2c0,0,0.1,0,0.1,0c0.1,0,0.1,0,0.2,0c0.2,0,0.5,0,0.7-0.1c0.5,0,0.9-0.1,1.4-0.2 c0.5-0.1,1-0.1,1.5-0.2c0.2,0,0.4,0,0.7-0.1c0.4,0,0.8-0.1,1.2,0c0.1,0,0.2,0,0.2,0c0.1,0.8,0.2,1.7,0.3,2.5 c0.1,1.6,0.3,3.2,0.4,4.8C186.5,188.2,186.6,189,186.6,189.8z M184.8,173.1c0.1,0.8,0.2,1.5,0.3,2.3c0.1,0.9,0.2,1.7,0.3,2.6 c0,0.3,0.1,0.6,0.1,0.9c-0.1,0-0.2,0-0.3,0c-0.2,0-0.5,0-0.7,0c-0.3,0-0.5,0-0.8,0c-0.3,0-0.6,0-0.9,0c0.1-0.2,0.2-0.4,0.2-0.6 c0.2-0.5,0.3-0.9,0.5-1.4C184,175.6,184.4,174.3,184.8,173.1z M182.5,164.7c0.1,0.1,0.2,0.2,0.3,0.3c0.2,0.3,0.3,0.5,0.5,0.8 c0.3,0.7,0.5,1.5,0.7,2.2c0.1,0.6,0.3,1.1,0.4,1.7c0.1,0.6,0.2,1.3,0.3,1.9c-0.1,0.2-0.1,0.3-0.2,0.5c-0.2,0.4-0.3,0.8-0.5,1.3 c-0.2,0.5-0.4,1-0.5,1.5c-0.3,1-0.6,2.1-1,3.1c0,0.1-0.1,0.1-0.1,0.2c0,0,0,0,0,0c0,0.1-0.1,0.1-0.1,0.2c0-0.8,0-1.6,0.1-2.4 c0-1,0-2.1,0-3.1c0-1.1,0-2.2,0-3.3c0-1.1,0-2.3-0.1-3.4c0-0.3,0-0.5,0-0.8c0-0.2,0-0.5,0-0.7c0,0,0,0,0,0c0,0,0,0,0.1,0 C182.3,164.6,182.4,164.7,182.5,164.7z M179,167.8c0.2-0.6,0.6-1.2,0.9-1.7c0.3-0.4,0.6-0.7,0.9-1c0.1-0.1,0.3-0.2,0.5-0.3 c0,0,0,0.1,0,0.1c0,0.3,0,0.6,0,0.8c0,0.6,0,1.2,0,1.7c0,1,0,2,0,3c0,2.1,0,4.2-0.1,6.3c0,0.3,0,0.6,0,0.9c0,0,0,0,0,0 c-0.2-0.3-0.3-0.6-0.5-1c-0.2-0.4-0.4-0.8-0.6-1.2c-0.4-0.9-0.8-1.8-1.2-2.8c-0.2-0.5-0.4-1.1-0.6-1.6c0-0.1-0.1-0.1-0.1-0.2 c0.1-0.5,0.1-0.9,0.2-1.4C178.7,169,178.8,168.4,179,167.8z"></path> <path d="M136.2,141.1c0.1,0.3,0.3,0.6,0.5,0.8c0.2,0.1,0.5,0.2,0.7,0.3c0.2,0.1,0.5,0.1,0.7,0.1c0.4,0,0.8,0.1,1.2,0.1 c0.8,0.1,1.6,0.2,2.4,0.2c0.4,0,0.7,0,1.1,0c0.4,0,0.7,0,1.1,0c0.5,0,1.1,0.1,1.6,0.1c0.3,0,0.7,0.1,1,0.1c0.1,0,0.3,0,0.4,0 c0.2,0,0.3-0.1,0.4-0.2c0.1-0.1,0.2-0.3,0.2-0.4c0-0.3-0.3-0.6-0.6-0.6c-0.2,0-0.3,0-0.5,0c-0.7-0.1-1.4-0.2-2.1-0.3 c-0.5-0.1-0.9-0.1-1.4-0.2c-0.4,0-0.7-0.1-1.1-0.1c-0.6-0.1-1.3-0.2-1.9-0.3c-0.3-0.1-0.6-0.1-1-0.1s-0.7-0.1-1-0.1c0,0,0,0,0,0 c0-0.2,0-0.4,0-0.6c0-0.1,0-0.2,0-0.4c0,0,0,0,0,0c0.3,0,0.7,0.1,1,0.1c0.3,0,0.6,0,0.9,0c0.6,0,1.1,0,1.7,0.1 c0.7,0.1,1.4,0.1,2.2,0.2c0.4,0,0.7,0.1,1.1,0.1c0.4,0.1,0.8,0.1,1.2,0.1c0,0-0.1,0-0.1,0c0.1,0,0.1,0,0.2,0c0,0,0,0,0,0 c0,0,0,0,0,0c0.1,0,0.2,0,0.2-0.1c0.1-0.2,0.1-0.4-0.1-0.5c-0.3-0.1-0.6-0.2-0.9-0.2c-0.2,0-0.4-0.1-0.7-0.1 c-0.5-0.1-1.1-0.2-1.6-0.3c-1-0.2-2-0.3-3.1-0.4c-0.6-0.1-1.3-0.1-1.9-0.1c0,0,0,0,0,0c0.1-0.7,0.1-1.4,0.1-2.1 c0.1-1.5,0.1-3,0.2-4.5c0-1.7,0.1-3.4,0.1-5.1c0-1.4,0-2.8,0-4.2c0,0,0.1,0.1,0.1,0.1c0,0,0,0,0,0c0.3,0,0.6-0.1,0.9-0.1 c0.8-0.1,1.6-0.1,2.4-0.1c0.3,0,0.5,0,0.8,0c1.1,0,2.2-0.1,3.3-0.2c0.1,0,0.1,0,0.2,0c0,0.1,0,0.2,0,0.3c0,0.3,0.1,0.6,0.1,0.9 c0,0.5,0,1,0.1,1.5c0,0.3,0,0.6,0,0.9c0,0.9,0,1.8,0,2.6c0,0.8,0,1.5,0,2.3c0,1.6,0,3.1,0,4.7c0,1.6,0,3.2,0.2,4.8 c0,0.1,0,0.3,0,0.4c0,0.1,0,0.1,0,0.2c0,0.1,0,0.2,0,0.2c0,0,0,0.1,0.1,0.1c0.1,0.2,0.4,0.3,0.6,0.1c0.2-0.2,0.2-0.5,0.2-0.8 c0-0.2,0-0.4,0-0.6c0-0.4,0-0.8,0-1.3c0-0.7,0-1.5,0.1-2.2c0.1-1.6,0.2-3.2,0.2-4.8c0-0.9,0.1-1.7,0.1-2.6c0-0.8,0-1.6,0-2.3 c0-0.3,0-0.7,0-1c0-0.4,0-0.9,0-1.3c0-0.4,0-0.7,0-1.1c0-0.5-0.1-0.9-0.1-1.4c0-0.3,0-0.6-0.1-0.9c-0.1-0.5-0.2-1-0.2-1.5 c-0.1-0.4-0.1-0.7-0.2-1.1c-0.1-0.4-0.1-0.7-0.2-1.1c-0.4-1.5-0.7-3.1-1.3-4.6c-0.4-1-0.7-2-1.3-3c-0.1-0.2-0.3-0.5-0.5-0.7 c-0.2-0.2-0.4-0.4-0.6-0.6c-0.5-0.3-1-0.5-1.5-0.5c-0.3,0-0.5,0.1-0.8,0.1c-0.2,0-0.5,0.1-0.7,0.3c-0.5,0.2-0.9,0.7-1.2,1.1 c-0.6,0.9-1,2-1.3,3.1c-0.4,1.1-0.6,2.2-0.8,3.4c-0.2,1.3-0.3,2.7-0.3,4c-0.2,3.1-0.2,6.2-0.3,9.3c-0.1,1.6-0.1,3.1-0.2,4.7 c-0.1,0.8-0.1,1.6-0.2,2.3c0,0.8-0.1,1.5-0.1,2.3C136,139.5,136.1,140.3,136.2,141.1z M140,121.3c-0.2,0-0.5,0.1-0.7,0.1 c-0.2,0-0.4,0.1-0.5,0.1c0,0-0.1,0-0.1,0c0,0-0.1,0-0.1,0c0-0.5,0-0.9,0-1.4c0-1,0.1-2,0.1-2.9c0.1,0.2,0.3,0.5,0.4,0.7 c0.2,0.3,0.4,0.6,0.5,0.9c0.2,0.3,0.4,0.7,0.6,1c0.1,0.2,0.2,0.4,0.4,0.5c0.1,0.2,0.3,0.4,0.4,0.6c0.1,0.1,0.2,0.2,0.3,0.3 c0,0,0,0,0,0C140.9,121.3,140.4,121.3,140,121.3z M145.7,121.4c-0.3,0-0.5,0-0.8,0c-0.6,0-1.2,0-1.7,0c0,0-0.1,0-0.1,0 c0.1-0.1,0.2-0.2,0.2-0.3c0.3-0.4,0.6-0.8,0.9-1.3c0.1-0.2,0.3-0.4,0.4-0.7c0.3-0.4,0.5-0.8,0.7-1.3c0,0,0,0,0,0 c0.1,0.2,0.1,0.5,0.1,0.7c0.1,0.4,0.2,0.7,0.2,1.1c0-0.1,0-0.1,0-0.2c0.1,0.6,0.2,1.3,0.3,1.9c0,0,0,0,0,0c0,0,0,0,0,0c0,0,0,0,0,0 C145.9,121.4,145.8,121.3,145.7,121.4z M142.8,110.2c0.3,0.4,0.5,0.8,0.7,1.2c0.1,0.3,0.3,0.7,0.4,1c0.1,0.1,0.1,0.3,0.1,0.4 c0.1,0.2,0.2,0.5,0.3,0.7c0.2,0.6,0.4,1.2,0.5,1.8c0.1,0.3,0.1,0.6,0.2,0.8c0,0,0,0.1,0,0.1c-0.1,0.2-0.1,0.3-0.2,0.5 c-0.2,0.3-0.3,0.7-0.5,1c-0.2,0.3-0.4,0.7-0.6,1c-0.3,0.4-0.5,0.9-0.8,1.3c-0.1,0.2-0.3,0.4-0.4,0.5c0-0.1,0-0.3,0-0.4 c0-0.5-0.1-1-0.1-1.6c-0.1-1.1,0-2.1,0-3.2c0-1,0.1-2.1,0.1-3.1c0-0.5,0-1,0-1.5c0-0.2,0-0.5,0-0.7c0-0.1,0-0.1,0-0.2 c0,0,0,0,0.1,0C142.6,110,142.7,110.1,142.8,110.2z M139.9,111.7c0.2-0.5,0.4-0.9,0.7-1.4c0.1-0.1,0.2-0.3,0.3-0.4 c0.1-0.1,0.2-0.1,0.3-0.1c0.2-0.1,0.3-0.1,0.5-0.1c0.1,0,0.2,0,0.3,0c0,0.2,0,0.5,0,0.7c0,0.2,0,0.5,0,0.7c0,0.6-0.1,1.1-0.1,1.7 c-0.1,1-0.2,2.1-0.2,3.1c0,0.5,0,0.9-0.1,1.4c0,0.5,0,1.1,0,1.6c0,0.5,0,0.9,0,1.4c0,0.1,0,0.3,0,0.4c-0.1-0.1-0.1-0.1-0.2-0.2 c-0.2-0.3-0.4-0.6-0.7-0.9c-0.1-0.1-0.1-0.2-0.2-0.3c-0.1-0.1-0.1-0.2-0.2-0.3c-0.1-0.2-0.2-0.4-0.3-0.7c-0.1-0.2-0.2-0.5-0.3-0.7 c-0.2-0.4-0.3-0.7-0.4-1.1c0-0.1-0.1-0.2-0.2-0.2c-0.1,0-0.1,0-0.2,0C139,114.7,139.3,113.2,139.9,111.7z"></path> <polygon points="146.6,141.2 146.6,141.2 146.6,141.2 "></polygon> <path d="M146.6,141.2C146.6,141.2,146.6,141.2,146.6,141.2C146.6,141.2,146.6,141.2,146.6,141.2 C146.6,141.1,146.6,141.2,146.6,141.2z"></path> <path d="M44.3,94.4c0,0.2,0,0.4,0,0.6c0,0.5,0,1,0,1.5c0,0.1,0,0.3,0,0.4c-0.3,0-0.6,0.1-0.9,0.1c-0.3,0-0.6,0.1-0.8,0.1 c-0.5,0.1-0.9,0.1-1.4,0.2c-0.3,0.1-0.6,0.5-0.6,0.8c0,0.3,0.2,0.6,0.5,0.7c0.8,0.3,1.5,0.6,2.3,0.9c0.3,0.2,0.6,0.3,0.9,0.5 c0,0.6-0.1,1.3-0.1,1.9c-0.1,0.6-0.1,1.1-0.1,1.7c0,0.2,0,0.3,0,0.5c0,0.1,0,0.1,0,0.2c-0.1,0.3-0.1,0.6-0.1,0.9 c-0.2,0.6,0.3,1.3,0.9,1.4c0.1,0,0.1,0,0.2,0c0.5,0,1.1-0.4,1.2-0.9c0.1-0.4,0.1-0.8,0.3-1.2c0.1-0.3,0.2-0.6,0.3-0.9 c0.2-0.6,0.4-1.1,0.6-1.7c1,0.7,2.1,1.4,3.1,2.2c0.2,0.1,0.4,0.2,0.6,0.2c0.2,0,0.5-0.1,0.6-0.3c0.3-0.3,0.3-0.7,0.1-1.1 c-0.2-0.3-0.4-0.6-0.6-0.9c-0.2-0.3-0.5-0.6-0.7-1c-0.5-0.7-0.9-1.4-1.3-2.1c0-0.1-0.1-0.1-0.1-0.2c0.5-0.6,1-1.2,1.5-1.8 c0.4-0.4,0.7-0.9,1.1-1.3c0.3-0.4,0.3-1-0.1-1.3c-0.2-0.2-0.4-0.2-0.7-0.2c-0.2,0-0.3,0.1-0.4,0.2c0,0,0,0,0,0 c-0.3,0.1-0.5,0.3-0.7,0.5c-0.2,0.1-0.5,0.3-0.7,0.4c-0.5,0.2-0.9,0.4-1.4,0.6c0,0,0,0,0,0c-0.2-0.5-0.5-1.1-0.7-1.6c0,0,0,0,0,0 c0,0,0,0,0,0c0,0,0,0,0,0c0,0,0,0,0,0c0,0,0,0,0,0c0,0,0,0,0,0c0,0,0,0,0,0c0-0.1-0.1-0.1-0.1-0.2c0,0.1,0.1,0.1,0.1,0.2 c-0.2-0.5-0.4-0.9-0.7-1.4c-0.1-0.2-0.2-0.4-0.3-0.5c-0.1-0.1-0.1-0.2-0.1-0.3c0-0.1-0.1-0.1-0.1-0.2c-0.1-0.1-0.2-0.2-0.3-0.3 c-0.2-0.1-0.6-0.1-0.8,0.2c-0.1,0.1-0.2,0.4-0.2,0.6c0,0,0,0.1,0,0.1c0,0.1,0,0.1,0,0.2c0,0,0,0.1,0,0.1c0,0.1-0.1,0.1-0.1,0.2 c0,0.1-0.1,0.3-0.1,0.4c-0.1,0.2,0,0.5,0.1,0.7C44.3,94.3,44.3,94.4,44.3,94.4z"></path> <path d="M181.5,51.5c0.2,0.2,0.5,0.3,0.7,0.3c0.2,0,0.3-0.1,0.5-0.2c0.3-0.1,0.5-0.3,0.8-0.4c0.3-0.2,0.6-0.3,1-0.4 c0.6-0.3,1.3-0.6,1.9-0.8c0.2-0.1,0.4-0.1,0.7-0.2c0.2,0.3,0.3,0.7,0.4,1c0.3,0.7,0.5,1.4,0.8,2.1c0.1,0.4,0.5,0.6,0.9,0.6 c0.1,0,0.2,0,0.3,0c0.2-0.1,0.4-0.2,0.5-0.5c0.1-0.1,0.1-0.3,0.1-0.5c0-0.5,0-0.9-0.1-1.4c0-0.2,0-0.4,0-0.6c0-0.4,0-0.7,0-1.1 c0-0.1,0-0.3,0-0.4c0.6-0.1,1.2-0.3,1.9-0.4c0.7-0.2,1.4-0.4,2-0.5c0.5-0.1,0.7-0.7,0.6-1.1c-0.1-0.4-0.5-0.6-0.9-0.6 c-0.1,0-0.1,0-0.2,0c-0.2,0-0.4-0.1-0.5-0.1c-0.8-0.3-1.5-0.6-2.2-1c-0.1-0.1-0.2-0.1-0.3-0.2c0,0,0-0.1,0-0.1 c0-0.4,0.1-0.8,0.1-1.2c0.2-0.3,0.5-0.7,0.6-1.1c0.2-0.5,0-1.2-0.5-1.4c-0.2-0.1-0.5-0.1-0.8-0.1c-0.2,0.1-0.5,0.3-0.6,0.5 c0,0,0,0.1,0,0.1c0,0,0,0.1-0.1,0.1c0,0.1-0.1,0.1-0.1,0.2c-0.1,0.3-0.3,0.5-0.5,0.8c-0.2,0.4-0.5,0.7-0.8,1.1 c-1.1-0.4-2.3-0.8-3.4-1.1c-0.4-0.1-0.8,0.1-1,0.5c-0.1,0.2-0.1,0.4,0,0.7c0.1,0.2,0.1,0.3,0.3,0.4c0.4,0.3,0.7,0.6,1,1 c0.3,0.4,0.6,0.7,0.9,1.1c-0.2,0.2-0.4,0.4-0.6,0.6c-0.2,0.2-0.4,0.3-0.5,0.5c-0.3,0.3-0.5,0.5-0.8,0.7c-0.3,0.3-0.7,0.6-1,0.9 c-0.2,0.1-0.3,0.3-0.5,0.4c-0.1,0.1-0.3,0.2-0.4,0.4c-0.1,0.1-0.1,0.2-0.2,0.3c-0.1,0.2-0.1,0.5-0.1,0.8 C181.3,51.2,181.4,51.4,181.5,51.5z M189.9,47C190,47,190,47,189.9,47C190,47,190,47,189.9,47C189.9,47,189.9,47,189.9,47z"></path> <path d="M187.9,106.9c0,1.4,1.2,2.6,2.6,2.6c1.4,0,2.6-1.2,2.6-2.6c0-1.4-1.2-2.6-2.6-2.6C189.1,104.3,187.9,105.5,187.9,106.9z"></path> <path d="M199.5,110.3c1,0,1.8-0.8,1.8-1.8c0-1-0.8-1.8-1.8-1.8c-1,0-1.8,0.8-1.8,1.8C197.7,109.5,198.5,110.3,199.5,110.3z"></path> <circle cx="201.4" cy="98.5" r="2.3"></circle> <circle cx="60.7" cy="39" r="1.9"></circle> <path d="M38.3,44.1c1.1,0,2-0.9,2-2c0-1.1-0.9-2-2-2c-1.1,0-2,0.9-2,2C36.3,43.1,37.2,44.1,38.3,44.1z"></path> <path d="M42.1,33.6c1.1,0,2-0.9,2-2c0-1.1-0.9-2-2-2c-1.1,0-2,0.9-2,2C40,32.7,41,33.6,42.1,33.6z"></path> <circle cx="31.1" cy="112.1" r="1.9"></circle> <path d="M25.6,126.9c0.5,0,0.9-0.1,1.4-0.1c0.4,0,0.8,0,1.2,0.1c0,0.2,0,0.3,0,0.5c-0.1,0.7-0.1,1.3-0.2,2c0,0,0,0,0,0 c0,0,0,0.1,0,0.1c0,0,0,0,0,0c0,0,0,0,0,0c0,0,0,0,0,0c0,0,0,0,0,0c0,0.2-0.1,0.5-0.1,0.7c0,0.2,0,0.4,0.1,0.6 c0.1,0.1,0.2,0.2,0.3,0.3c0.1,0.1,0.2,0.1,0.4,0.1c0.1,0,0.3,0,0.4-0.1c0.2-0.1,0.4-0.2,0.6-0.4c0.1-0.1,0.2-0.3,0.3-0.4 c0.2-0.3,0.5-0.5,0.7-0.8c0.5-0.5,1-0.9,1.5-1.3c0.1-0.1,0.2-0.1,0.3-0.2c0.3,0.1,0.6,0.3,0.9,0.4c0.2,0.1,0.4,0.2,0.6,0.3 c0.1,0.1,0.2,0.2,0.3,0.3c0.2,0.1,0.4,0.3,0.6,0.4c0.4,0.2,0.9,0.1,1.1-0.3c0.1-0.2,0.1-0.3,0.1-0.5c0-0.2-0.1-0.3-0.1-0.5 c-0.1-0.2-0.3-0.3-0.5-0.4c-0.1-0.1-0.2-0.1-0.3-0.2c-0.1-0.1-0.3-0.2-0.4-0.2c-0.2-0.2-0.4-0.4-0.5-0.5c0,0,0.1-0.1,0.1-0.1 c0.4-0.2,0.8-0.5,1.2-0.7c0.2-0.1,0.4-0.2,0.6-0.4c0.1-0.1,0.3-0.2,0.4-0.2c0.2-0.1,0.3-0.2,0.4-0.3c0.1-0.1,0.2-0.3,0.2-0.4 c0.1-0.3,0-0.6-0.2-0.7c-0.1-0.1-0.4-0.2-0.5-0.2c-0.2,0-0.5,0.1-0.7,0.1c0,0,0,0,0,0c-1.1,0.1-2.3,0.3-3.4,0.5 c-0.4-0.7-0.8-1.4-1.1-2.1c-0.3-0.6-0.6-1.3-0.9-2c-0.1-0.3-0.5-0.5-0.8-0.5c-0.1,0-0.1,0-0.2,0c-0.4,0-0.8,0.3-0.8,0.8 c0,0.5,0,1,0,1.5c0,0.5,0,1-0.1,1.5c0,0.5,0,1-0.1,1.5c-1,0.2-2,0.3-3,0.5c-0.2,0-0.4,0.2-0.5,0.4c-0.1,0.2-0.1,0.4-0.1,0.6 C24.9,126.6,25.2,126.9,25.6,126.9z M29.6,127.1c0.1,0,0.3,0.1,0.4,0.1c0.1,0.1,0.3,0.2,0.4,0.2c-0.2,0.1-0.3,0.3-0.5,0.4 c-0.1,0.1-0.3,0.3-0.4,0.4C29.6,127.8,29.6,127.5,29.6,127.1z"></path> </g> </svg>