<?xml version="1.0" standalone="no"?>
<!DOCTYPE svg PUBLIC "-//W3C//DTD SVG 20010904//EN"
 "http://www.w3.org/TR/2001/REC-SVG-20010904/DTD/svg10.dtd">
<svg version="1.0" xmlns="http://www.w3.org/2000/svg"
 width="1024.000000pt" height="1024.000000pt" viewBox="0 0 1024.000000 1024.000000"
 preserveAspectRatio="xMidYMid meet">

<g transform="translate(0.000000,1024.000000) scale(0.100000,-0.100000)"
fill="#CC9B9A" stroke="none">
<path d="M3875 9177 c-68 -49 -240 -215 -315 -302 -140 -163 -181 -226 -307
-475 -21 -41 -40 -77 -43 -80 -3 -3 -13 -27 -22 -55 -9 -27 -33 -97 -53 -155
-50 -144 -62 -192 -79 -319 l-14 -109 -89 -89 c-49 -48 -105 -107 -125 -130
-20 -24 -37 -43 -39 -43 -2 0 -4 60 -5 133 0 92 -5 148 -16 184 -44 140 -114
259 -216 367 -40 42 -60 56 -81 56 -16 0 -31 -6 -34 -14 -14 -35 -28 -254 -24
-361 4 -116 28 -252 60 -345 14 -41 59 -143 109 -247 11 -23 19 -45 17 -50 -9
-22 -95 -152 -100 -153 -4 0 -10 21 -14 48 -10 67 -58 188 -104 257 -52 81
-144 167 -174 163 -21 -3 -22 -7 -19 -88 3 -104 32 -221 78 -314 19 -38 34
-76 34 -83 0 -7 5 -13 10 -13 6 0 10 -6 10 -12 0 -7 21 -40 45 -72 51 -68 52
-56 -10 -206 -51 -126 -103 -281 -139 -410 -65 -243 -103 -692 -77 -931 14
-126 46 -324 60 -379 6 -19 18 -69 27 -110 28 -125 129 -413 179 -510 7 -14
28 -56 46 -95 69 -145 218 -373 351 -538 134 -166 381 -405 501 -486 29 -19
55 -39 58 -44 4 -5 24 -10 45 -11 73 -2 52 28 -111 160 -179 145 -362 330
-468 474 -43 58 -85 113 -93 123 -8 9 -14 20 -14 24 0 4 -8 16 -19 27 -31 35
-125 195 -185 316 -122 244 -218 538 -256 784 -11 72 -25 158 -31 191 -6 33
-15 125 -19 205 l-8 145 31 25 c17 14 84 77 149 141 117 116 117 116 186 260
91 188 100 212 112 289 16 104 14 117 -17 123 -19 3 -41 -3 -68 -19 -47 -28
-209 -182 -251 -239 -16 -22 -32 -42 -35 -45 -3 -3 -16 -23 -27 -45 -20 -37
-21 -38 -22 -13 -1 58 49 242 117 431 l46 129 55 24 c30 13 60 24 66 24 17 0
225 106 323 165 155 92 409 316 476 420 14 22 36 51 49 65 13 14 34 41 48 60
13 19 27 37 30 40 26 24 132 249 126 267 -9 22 -51 15 -116 -22 -34 -19 -74
-38 -88 -42 -34 -8 -245 -140 -347 -217 -126 -94 -183 -143 -284 -243 -51 -52
-96 -92 -98 -90 -6 7 104 174 165 252 55 69 128 147 247 268 51 51 100 94 197
172 9 8 42 34 72 58 62 51 151 110 316 209 l115 70 83 -7 c46 -3 96 -11 110
-17 40 -16 344 -22 464 -9 306 34 677 126 873 217 17 7 73 31 125 53 96 40
118 57 108 83 -27 70 -679 79 -988 13 -41 -8 -95 -20 -120 -25 -25 -5 -76 -19
-115 -30 -38 -11 -95 -27 -124 -36 -127 -35 -491 -202 -644 -296 -43 -26 -80
-48 -83 -48 -12 0 0 24 30 64 57 75 179 283 245 421 105 215 154 358 197 573
18 92 18 94 -1 108 -24 18 -24 18 -60 -9z m-38 -170 c-6 -46 -96 -328 -124
-387 -109 -238 -258 -478 -414 -665 -107 -129 -147 -170 -155 -162 -9 8 18
143 46 232 11 33 30 96 44 141 26 84 99 241 162 347 50 84 126 201 134 207 4
3 17 21 31 41 13 20 45 60 72 88 26 29 47 56 47 60 0 4 10 13 23 20 13 7 30
23 38 36 11 19 84 82 98 84 2 1 1 -18 -2 -42z m1497 -584 c64 -13 20 -34 -229
-112 -232 -73 -348 -100 -545 -128 -152 -21 -201 -24 -375 -21 -110 3 -208 8
-218 13 -23 10 -17 27 14 36 13 3 44 16 69 27 25 12 83 32 130 46 47 13 121
36 165 50 44 13 127 32 185 41 339 52 354 54 566 53 116 0 223 -2 238 -5z
m-2813 -395 c58 -48 139 -203 170 -328 19 -73 21 -102 16 -205 -5 -109 -25
-204 -48 -229 -41 -45 -163 318 -174 517 -5 88 5 257 15 257 3 0 13 -6 21 -12z
m917 -487 c-11 -21 -39 -63 -62 -94 -22 -31 -59 -81 -81 -111 -55 -78 -278
-294 -350 -342 -33 -21 -65 -44 -72 -50 -55 -52 -338 -193 -355 -176 -17 17
81 138 258 317 149 151 182 180 323 288 42 32 88 67 102 77 14 11 50 32 80 47
30 15 68 37 84 49 34 26 76 44 87 38 4 -3 -2 -22 -14 -43z m-1108 -306 c45
-61 63 -103 85 -195 18 -80 18 -90 3 -90 -27 0 -106 155 -132 256 -29 111 -20
116 44 29z m270 -922 c0 -5 -9 -33 -20 -63 -74 -216 -141 -324 -288 -469 l-65
-64 6 51 c9 74 54 199 96 262 20 30 39 62 42 70 8 18 127 150 153 169 11 8 27
23 35 32 16 18 41 25 41 12z"/>
<path d="M6747 7963 c-4 -3 -7 -18 -7 -33 0 -23 12 -36 72 -75 183 -123 428
-369 574 -575 21 -30 49 -66 62 -80 13 -14 39 -52 58 -85 19 -33 39 -67 44
-75 222 -355 360 -765 405 -1200 16 -145 19 -339 7 -355 -4 -5 -29 -27 -55
-48 -90 -73 -223 -211 -257 -268 -64 -108 -132 -283 -152 -394 -24 -128 -5
-141 101 -71 69 46 173 148 256 253 75 95 77 91 35 -91 -19 -85 -32 -125 -100
-316 -16 -47 -30 -85 -30 -86 0 -1 -16 -5 -36 -9 -86 -16 -349 -149 -486 -246
-80 -57 -213 -170 -268 -229 -130 -139 -224 -255 -280 -345 -42 -67 -49 -78
-80 -137 -66 -127 -28 -139 150 -49 132 67 408 249 484 320 27 25 72 66 99 91
27 25 80 77 119 115 l71 70 -29 -50 c-75 -131 -192 -275 -405 -501 -89 -94
-289 -256 -401 -326 -337 -208 -299 -193 -450 -172 -321 44 -607 24 -1013 -72
-128 -30 -219 -66 -492 -195 -65 -31 -90 -66 -64 -92 31 -31 436 -47 671 -27
215 19 613 117 777 191 24 10 46 19 50 19 21 0 252 104 338 152 10 6 39 21 62
34 24 12 57 34 74 48 62 52 67 17 10 -58 -32 -41 -201 -320 -201 -331 0 -2
-17 -41 -39 -87 -57 -123 -98 -226 -115 -288 -9 -30 -25 -86 -36 -125 -12 -38
-26 -108 -32 -154 -11 -77 -10 -85 7 -97 26 -19 52 2 225 175 159 160 246 266
329 399 48 77 77 130 167 302 33 63 120 322 139 417 9 43 19 110 22 148 l6 70
109 110 c60 61 114 121 121 134 7 13 16 22 21 20 5 -2 10 -65 11 -139 3 -195
25 -264 130 -425 69 -105 145 -177 183 -173 20 2 28 9 30 28 1 14 10 63 18
109 13 67 15 115 9 225 -10 190 -43 317 -131 505 -30 63 -54 124 -54 136 0 27
32 86 87 164 9 13 25 -24 38 -90 16 -77 79 -218 114 -256 12 -12 21 -25 21
-28 0 -11 47 -57 78 -77 21 -13 41 -18 56 -14 21 5 24 11 20 43 -2 21 -6 70
-8 108 -11 146 -65 284 -166 420 -61 83 -61 84 6 223 126 261 212 663 221
1042 6 243 -6 385 -52 619 -38 189 -134 505 -180 591 -8 14 -34 70 -59 124
-26 55 -60 122 -78 150 -17 28 -42 71 -56 96 -14 25 -30 50 -36 56 -6 6 -22
30 -36 53 -96 159 -318 426 -444 534 -34 28 -63 54 -66 57 -11 11 -148 119
-201 158 -54 40 -78 50 -92 35z m1207 -2620 c-14 -61 -99 -247 -141 -311 -46
-68 -131 -174 -146 -180 -4 -2 -21 -15 -36 -28 -39 -33 -45 -30 -37 17 7 45
92 253 110 272 7 7 17 19 22 28 36 63 196 229 221 229 10 0 12 -8 7 -27z
m-284 -999 c0 -3 -11 -20 -25 -38 -14 -17 -29 -35 -33 -41 -90 -123 -292 -334
-423 -441 -145 -120 -188 -149 -396 -271 -96 -57 -96 -45 -1 96 85 126 98 140
253 297 138 139 242 213 485 347 30 17 64 36 75 44 20 13 65 18 65 7z m163
-284 c45 -87 94 -235 85 -261 -6 -17 -61 43 -85 92 -109 222 -110 378 0 169z
m-257 -289 c18 -47 38 -96 47 -110 17 -30 30 -85 52 -223 16 -98 19 -345 5
-368 -12 -19 -89 77 -124 155 -80 176 -87 203 -88 358 0 85 5 143 17 192 21
84 22 87 43 83 11 -2 28 -34 48 -87z m-561 -593 c-39 -162 -63 -228 -160 -433
-69 -146 -204 -359 -277 -436 -7 -8 -38 -43 -68 -79 -56 -66 -68 -79 -129
-131 -60 -51 -63 -40 -25 83 91 295 181 489 335 723 117 177 149 219 256 333
104 110 108 107 68 -60z m-887 -244 c45 -4 82 -10 82 -13 0 -23 -402 -160
-545 -186 -316 -58 -539 -76 -730 -60 -81 6 -85 8 -71 24 9 10 34 24 56 31 22
7 40 16 40 19 0 32 454 152 645 171 66 6 145 16 175 20 54 9 180 6 348 -6z"/>
<path d="M5040 6478 c0 -260 0 -543 0 -628 l0 -155 -48 52 c-49 55 -116 92
-166 93 -38 0 -93 -35 -112 -73 -9 -16 -19 -56 -21 -88 -12 -128 97 -320 282
-501 l65 -63 2 -485 c3 -477 3 -485 23 -485 20 0 20 7 22 465 1 256 2 471 2
477 1 7 32 42 70 78 62 59 157 180 192 245 8 14 17 27 20 30 13 11 47 119 58
186 25 149 -43 238 -167 219 -40 -6 -55 -16 -109 -71 -35 -36 -63 -61 -64 -57
0 5 0 276 1 603 1 327 -2 603 -5 613 -4 9 -16 17 -26 17 -19 0 -19 -14 -19
-472z m333 -698 c24 -26 27 -36 27 -102 0 -40 -7 -95 -15 -121 -15 -50 -79
-178 -105 -211 -34 -43 -149 -173 -173 -195 -24 -22 -28 -23 -49 -8 -107 72
-285 314 -318 432 -18 63 -16 144 4 183 44 85 165 55 252 -64 21 -30 41 -64
44 -76 10 -40 28 -29 65 40 42 81 87 128 141 148 52 18 93 10 127 -26z"/>
<path d="M6130 6188 c-200 -13 -312 -64 -456 -205 -77 -76 -114 -140 -159
-277 -23 -67 -26 -95 -26 -201 0 -131 11 -188 58 -292 32 -74 105 -175 156
-217 44 -36 168 -102 221 -117 132 -40 310 -49 449 -24 126 22 351 134 372
185 13 31 18 207 6 214 -11 7 -14 1 -48 -88 -26 -71 -111 -154 -198 -195 -132
-63 -315 -86 -432 -56 -263 67 -392 251 -410 586 -6 121 8 217 46 319 26 69
115 182 174 223 97 67 139 80 275 85 139 5 211 -6 282 -45 135 -75 185 -138
236 -301 5 -18 30 -9 26 9 -8 32 -21 129 -27 204 -6 75 -9 82 -33 93 -15 6
-53 23 -86 37 -114 50 -271 73 -426 63z"/>
<path d="M3425 6171 c-13 -12 -1 -19 39 -25 28 -5 54 -17 70 -33 l26 -26 0
-561 0 -562 -33 -32 c-18 -18 -40 -32 -49 -32 -23 0 -72 -19 -66 -26 11 -10
438 -9 435 1 -1 5 -23 17 -49 26 -77 26 -84 42 -92 202 -4 77 -4 328 0 559 l7
419 28 30 c19 21 36 29 61 29 40 0 71 16 48 24 -20 6 -419 14 -425 7z"/>
<path d="M4187 6168 c-10 -6 9 -17 56 -32 42 -13 10 -91 -74 -181 -35 -37 -73
-79 -84 -93 -11 -15 -34 -42 -52 -60 -18 -18 -44 -48 -59 -65 -14 -18 -50 -57
-78 -87 -29 -30 -65 -74 -81 -98 l-28 -43 59 -61 c32 -34 64 -67 69 -73 134
-161 352 -402 396 -439 42 -35 104 -55 211 -67 102 -11 138 -9 138 8 0 5 -28
14 -62 20 -69 13 -79 22 -288 253 -47 51 -94 103 -105 114 -11 12 -63 68 -115
126 -52 57 -107 117 -122 133 -16 17 -28 34 -28 40 0 12 32 48 214 241 310
329 318 336 416 336 42 0 74 16 50 24 -23 8 -421 12 -433 4z"/>
<path d="M3350 948 c-61 -13 -82 -35 -74 -76 8 -41 17 -40 34 4 16 39 36 54
72 54 42 -1 61 -25 66 -84 6 -73 -18 -121 -111 -221 -39 -43 -74 -82 -75 -87
-2 -5 56 -7 135 -6 l138 3 20 57 c22 65 15 84 -16 45 -18 -24 -28 -27 -80 -27
-32 0 -59 3 -59 6 0 3 23 29 50 56 63 62 90 114 90 171 0 83 -83 129 -190 105z"/>
<path d="M4843 950 c-18 -4 -44 -15 -58 -24 -22 -15 -25 -22 -19 -49 3 -18 8
-34 10 -36 7 -8 24 12 24 29 0 24 46 60 77 60 13 0 36 -12 50 -26 23 -23 25
-31 20 -79 -3 -29 -11 -63 -19 -76 -20 -36 -138 -183 -154 -192 -37 -21 -7
-27 122 -25 l137 3 17 55 c19 58 11 76 -18 40 -15 -18 -26 -21 -81 -18 l-63 3
56 59 c32 32 66 76 77 97 22 44 24 106 5 131 -27 36 -126 62 -183 48z"/>
<path d="M5925 949 c-38 -11 -89 -64 -104 -108 -19 -57 -14 -176 9 -220 36
-72 107 -107 177 -89 51 13 66 25 93 78 33 64 35 197 3 256 -32 60 -119 100
-178 83z m88 -51 c29 -40 38 -248 12 -302 -20 -42 -34 -51 -68 -42 -41 10 -62
75 -62 191 0 55 3 112 8 127 17 62 73 76 110 26z"/>
<path d="M6823 941 c-82 -28 -120 -59 -153 -125 -73 -145 -7 -286 135 -286
106 0 177 89 146 183 -16 46 -48 73 -98 81 -43 6 -93 -6 -93 -23 0 -6 7 -8 15
-5 27 11 62 -5 73 -33 32 -83 21 -166 -24 -177 -61 -16 -94 29 -94 127 0 36 4
68 9 71 4 3 6 17 4 30 -8 42 64 129 120 144 26 7 38 24 20 29 -4 1 -31 -6 -60
-16z"/>
<path d="M3740 931 c-66 -34 -78 -118 -23 -161 l26 -21 -36 -33 c-32 -29 -37
-40 -37 -77 1 -48 11 -66 52 -93 57 -37 187 -18 225 33 35 48 19 130 -33 169
l-29 22 27 20 c58 44 40 127 -32 149 -54 16 -100 14 -140 -8z m118 -17 c36
-25 24 -124 -16 -124 -23 0 -68 33 -82 61 -31 57 41 103 98 63z m-28 -214 c45
-23 60 -45 60 -89 0 -40 -24 -61 -70 -61 -59 0 -84 26 -84 88 0 51 15 82 41
82 7 0 31 -9 53 -20z"/>
<path d="M4425 938 c-58 -34 -85 -98 -85 -198 0 -126 35 -185 121 -210 50 -15
93 -2 132 36 44 45 60 102 56 202 -4 68 -8 84 -32 115 -15 20 -41 44 -57 52
-34 18 -107 19 -135 3z m91 -16 c6 -4 20 -23 30 -42 24 -44 27 -236 5 -288
-23 -55 -91 -56 -110 -1 -15 45 -24 170 -17 232 10 81 52 126 92 99z"/>
<path d="M5448 933 c-33 -13 -38 -19 -38 -48 0 -33 20 -60 28 -37 9 28 49 77
66 80 38 8 67 -8 82 -45 26 -61 6 -115 -83 -224 -42 -52 -80 -95 -85 -97 -4
-2 -8 -10 -8 -18 0 -11 25 -14 135 -14 122 0 135 2 135 18 0 9 7 35 14 57 17
48 13 56 -14 27 -17 -18 -32 -22 -80 -22 -34 0 -60 4 -60 10 0 6 19 27 42 48
73 65 98 108 98 166 0 28 -7 59 -14 68 -34 45 -146 61 -218 31z"/>
<path d="M6273 934 c-26 -13 -33 -23 -33 -45 0 -40 17 -45 35 -10 20 40 49 54
91 47 28 -6 35 -13 44 -44 5 -20 10 -44 10 -53 0 -34 -32 -106 -63 -140 -58
-64 -127 -147 -127 -153 0 -3 60 -6 133 -6 l133 0 18 56 c19 62 14 81 -13 46
-15 -21 -24 -23 -81 -20 l-65 3 57 57 c101 101 125 182 68 237 -46 44 -145 55
-207 25z"/>
<path d="M4080 710 c0 -20 5 -21 88 -18 69 2 87 6 87 18 0 12 -18 16 -87 18
-83 3 -88 2 -88 -18z"/>
<path d="M5193 715 c-8 -21 -7 -22 72 -29 74 -6 102 2 92 28 -9 23 -155 23
-164 1z"/>
</g>
</svg>
