<?xml version="1.0" standalone="no"?>
<!DOCTYPE svg PUBLIC "-//W3C//DTD SVG 20010904//EN"
 "http://www.w3.org/TR/2001/REC-SVG-20010904/DTD/svg10.dtd">
<svg version="1.0" xmlns="http://www.w3.org/2000/svg"
 width="392.000000pt" height="297.000000pt" viewBox="0 0 392.000000 297.000000"
 preserveAspectRatio="xMidYMid meet">

<g transform="translate(0.000000,297.000000) scale(0.100000,-0.100000)"
fill="#000000" stroke="none">
<path d="M1905 2850 c-3 -5 -6 -287 -5 -625 0 -388 -3 -615 -9 -615 -5 0 -26
19 -45 43 -37 45 -104 85 -158 93 -24 4 -42 -1 -68 -18 -102 -68 -93 -235 22
-417 52 -84 71 -107 174 -212 l84 -87 0 -481 c0 -474 0 -481 20 -481 20 0 20
7 20 477 l0 478 63 60 c64 60 147 167 206 261 71 116 98 292 56 362 -27 45
-92 75 -142 66 -44 -7 -108 -53 -144 -101 -13 -18 -28 -31 -32 -30 -4 1 -9
279 -10 616 -1 455 -5 615 -14 618 -6 2 -14 -1 -18 -7z m290 -1135 c46 -23 60
-56 59 -144 0 -59 -7 -92 -29 -146 -37 -94 -117 -213 -207 -309 -82 -88 -87
-89 -148 -33 -50 46 -151 163 -189 220 -90 132 -125 279 -86 360 47 100 189
52 275 -93 23 -38 45 -70 49 -70 4 0 20 28 36 63 46 96 118 156 198 166 5 1
24 -6 42 -14z"/>
<path d="M2895 2089 c-80 -15 -142 -39 -216 -81 -141 -81 -234 -192 -294 -349
-32 -81 -37 -109 -42 -206 -7 -133 5 -207 52 -316 65 -151 144 -236 280 -303
121 -59 187 -75 335 -81 198 -8 323 21 478 111 116 69 116 68 120 191 3 82 1
106 -8 103 -7 -2 -19 -24 -27 -48 -21 -62 -75 -143 -115 -173 -53 -41 -178
-96 -253 -112 -104 -22 -238 -19 -316 6 -70 23 -150 65 -189 101 -111 100
-176 271 -186 488 -5 103 -3 126 20 213 30 114 43 142 100 217 51 68 66 81
140 126 80 48 150 64 276 64 117 0 181 -14 255 -55 115 -64 178 -139 209 -248
11 -36 22 -57 29 -54 13 4 13 10 -3 97 -5 30 -10 76 -10 101 0 97 -3 101 -98
141 -160 67 -383 95 -537 67z"/>
<path d="M280 2070 c0 -5 19 -13 42 -16 53 -9 88 -42 89 -86 7 -174 4 -1052
-2 -1080 -12 -48 -59 -88 -106 -88 -21 0 -33 -4 -31 -11 3 -8 69 -12 221 -13
140 -1 216 2 214 9 -2 5 -17 12 -33 16 -40 8 -76 27 -96 53 -16 19 -18 65 -18
573 l0 553 28 31 c21 24 40 34 73 38 24 3 43 11 42 16 -4 14 -423 19 -423 5z"/>
<path d="M1040 2070 c0 -5 15 -13 33 -18 23 -6 33 -15 35 -31 8 -54 11 -51
-347 -450 -75 -85 -111 -134 -111 -154 0 -7 12 -24 26 -38 24 -22 150 -163
302 -339 102 -117 196 -206 242 -228 56 -26 264 -52 282 -34 13 13 14 12 -67
31 -59 14 -87 41 -390 375 -79 87 -206 227 -227 249 -16 17 -28 33 -28 36 0
23 490 535 533 557 16 9 56 18 90 22 34 4 62 12 62 17 0 6 -81 11 -217 13
-139 1 -218 -1 -218 -8z"/>
</g>
</svg>
